# Blender v2.76 (sub 0) OBJ File: ''
# www.blender.org
mtllib blade.mtl
o Cube_Cube.001
v -0.028401 -0.013511 -0.206805
v -0.011869 -0.005434 -0.808542
v -0.011869 0.005434 -0.808542
v -0.028401 0.013511 -0.206805
v 0.011869 -0.005434 -0.808542
v 0.011869 0.005434 -0.808542
v 0.028401 -0.013511 -0.206805
v 0.028401 0.013511 -0.206805
v -0.028401 -0.013510 0.051976
v -0.028401 0.013512 0.051976
v 0.028401 -0.013510 0.051976
v 0.028401 0.013512 0.051976
v 0.019892 -0.000000 -0.825356
v 0.047600 0.000000 -0.206805
v -0.019892 -0.000000 -0.825356
v -0.047600 0.000000 -0.206805
v 0.047600 0.000001 0.051976
v -0.047600 0.000001 0.051976
vt 0.875718 0.703857
vt 0.787414 0.705528
vt 0.711376 0.019805
vt 0.748278 0.000000
vt 0.602200 0.019805
vt 0.565298 0.000000
vt 0.526163 0.705528
vt 0.437859 0.703857
vt 0.787414 1.000000
vt 0.526163 1.000000
vt 0.088304 0.294471
vt 0.349555 0.294471
vt 0.273518 0.980195
vt 0.164342 0.980195
vt 0.937859 0.000000
vt 1.000000 0.021976
vt 1.000000 0.086992
vt 0.937859 0.108967
vt 0.875718 0.998328
vt 0.000000 0.296143
vt 0.000000 0.001672
vt 0.088304 0.000000
vt 0.349555 0.000000
vt 0.437859 0.998328
vt 0.437859 0.001672
vt 0.437859 0.296143
vt 0.875718 0.021976
vt 0.875718 0.086992
vt 0.127440 1.000000
vt 0.310420 1.000000
vn -0.560200 0.827900 -0.025800
vn 0.000000 0.951500 -0.307500
vn 0.560200 0.827900 -0.025800
vn 0.000000 1.000000 -0.000000
vn 0.000000 0.999900 -0.013400
vn 0.000000 -0.999900 -0.013400
vn 0.000000 0.000000 1.000000
vn -0.575500 0.817800 -0.000000
vn 0.575500 -0.817800 0.000000
vn 0.000000 -1.000000 0.000000
vn 0.575500 0.817800 -0.000000
vn -0.575500 -0.817800 0.000000
vn 0.560200 -0.827900 -0.025800
vn 0.000000 -0.951600 -0.307500
vn -0.560200 -0.827900 -0.025800
usemtl None
s off
f 16/1/1 4/2/1 3/3/1 15/4/1
f 15/4/2 3/3/2 6/5/2 13/6/2
f 13/6/3 6/5/3 8/7/3 14/8/3
f 4/2/4 10/9/4 12/10/4 8/7/4
f 6/5/5 3/3/5 4/2/5 8/7/5
f 7/11/6 1/12/6 2/13/6 5/14/6
f 17/15/7 12/16/7 10/17/7 18/18/7
f 16/1/8 18/19/8 10/9/8 4/2/8
f 14/20/9 17/21/9 11/22/9 7/11/9
f 7/11/10 11/22/10 9/23/10 1/12/10
f 8/7/11 12/10/11 17/24/11 14/8/11
f 1/12/12 9/23/12 18/25/12 16/26/12
f 11/27/7 17/15/7 18/18/7 9/28/7
f 5/14/13 13/29/13 14/20/13 7/11/13
f 2/13/14 15/30/14 13/29/14 5/14/14
f 1/12/15 16/26/15 15/30/15 2/13/15
