# 3ds Max Wavefront OBJ Exporter v0.97b - (c)2007 guruware
# File Created: 30.12.2016 22:27:05

mtllib clef.mtl

#
# object Torus001
#

v  0.1013 0.0720 -0.9527
v  0.0905 0.1738 -0.8515
v  0.4290 0.1738 -0.7411
v  0.4800 0.0720 -0.8292
v  0.0753 0.1738 -0.7083
v  0.3569 0.1738 -0.6164
v  0.0645 0.0720 -0.6070
v  0.3058 0.0720 -0.5283
v  0.0645 -0.0720 -0.6070
v  0.3058 -0.0720 -0.5283
v  0.0753 -0.1738 -0.7083
v  0.3569 -0.1738 -0.6164
v  0.0905 -0.1738 -0.8515
v  0.4290 -0.1738 -0.7411
v  0.1013 -0.0720 -0.9527
v  0.4800 -0.0720 -0.8292
v  0.6933 0.1738 -0.5025
v  0.7758 0.0720 -0.5623
v  0.5767 0.1738 -0.4180
v  0.4943 0.0720 -0.3582
v  0.4943 -0.0720 -0.3582
v  0.5767 -0.1738 -0.4180
v  0.6933 -0.1738 -0.5025
v  0.7758 -0.0720 -0.5623
v  0.8378 0.1738 -0.1770
v  0.9374 0.0720 -0.1981
v  0.6969 0.1738 -0.1473
v  0.5973 0.0720 -0.1262
v  0.5973 -0.0720 -0.1262
v  0.6969 -0.1738 -0.1473
v  0.8378 -0.1738 -0.1770
v  0.9374 -0.0720 -0.1981
v  0.8374 0.1738 0.1790
v  0.9369 0.0720 0.2003
v  0.6965 0.1738 0.1489
v  0.5970 0.0720 0.1276
v  0.5970 -0.0720 0.1276
v  0.6965 -0.1738 0.1489
v  0.8374 -0.1738 0.1790
v  0.9369 -0.0720 0.2003
v  5.2604 -0.0720 -0.1930
v  5.2604 0.0720 -0.1930
v  5.2599 0.0720 0.2054
v  5.2599 -0.0720 0.2054
v  0.6922 0.1738 0.5041
v  0.7745 0.0720 0.5641
v  0.5757 0.1738 0.4193
v  0.4934 0.0720 0.3594
v  0.4934 -0.0720 0.3594
v  0.5757 -0.1738 0.4193
v  0.6922 -0.1738 0.5041
v  0.7745 -0.0720 0.5641
v  0.4273 0.1738 0.7421
v  0.4781 0.0720 0.8303
v  0.3554 0.1738 0.6173
v  0.3046 0.0720 0.5290
v  0.3046 -0.0720 0.5290
v  0.3554 -0.1738 0.6173
v  0.4273 -0.1738 0.7421
v  0.4781 -0.0720 0.8303
v  0.0885 0.1738 0.8517
v  0.0990 0.0720 0.9530
v  0.0736 0.1738 0.7085
v  0.0631 0.0720 0.6072
v  0.0631 -0.0720 0.6072
v  0.0736 -0.1738 0.7085
v  0.0885 -0.1738 0.8517
v  0.0990 -0.0720 0.9530
v  -0.2656 0.1738 0.8141
v  -0.2971 0.0720 0.9109
v  -0.2209 0.1738 0.6772
v  -0.1893 0.0720 0.5803
v  -0.1893 -0.0720 0.5803
v  -0.2209 -0.1738 0.6772
v  -0.2656 -0.1738 0.8141
v  -0.2971 -0.0720 0.9109
v  -0.5737 0.1738 0.6357
v  -0.6419 0.0720 0.7113
v  -0.4772 0.1738 0.5288
v  -0.4090 0.0720 0.4532
v  -0.4090 -0.0720 0.4532
v  -0.4772 -0.1738 0.5288
v  -0.5737 -0.1738 0.6357
v  -0.6419 -0.0720 0.7113
v  -0.7827 0.1738 0.3474
v  -0.8757 0.0720 0.3887
v  -0.6510 0.1738 0.2889
v  -0.5580 0.0720 0.2476
v  -0.5580 -0.0720 0.2476
v  -0.6510 -0.1738 0.2889
v  -0.7827 -0.1738 0.3474
v  -0.8757 -0.0720 0.3887
v  -0.8563 0.1738 -0.0010
v  -0.9581 0.0720 -0.0011
v  -0.7123 0.1738 -0.0008
v  -0.6104 0.0720 -0.0007
v  -0.6104 -0.0720 -0.0007
v  -0.7123 -0.1738 -0.0008
v  -0.8563 -0.1738 -0.0010
v  -0.9581 -0.0720 -0.0011
v  -0.7818 0.1738 -0.3492
v  -0.8748 0.0720 -0.3907
v  -0.6504 0.1738 -0.2905
v  -0.5574 0.0720 -0.2489
v  -0.5574 -0.0720 -0.2489
v  -0.6504 -0.1738 -0.2905
v  -0.7818 -0.1738 -0.3492
v  -0.8748 -0.0720 -0.3907
v  -0.5722 0.1738 -0.6370
v  -0.6403 0.0720 -0.7128
v  -0.4760 0.1738 -0.5299
v  -0.4079 0.0720 -0.4541
v  -0.4079 -0.0720 -0.4541
v  -0.4760 -0.1738 -0.5299
v  -0.5722 -0.1738 -0.6370
v  -0.6403 -0.0720 -0.7128
v  -0.2636 0.1738 -0.8147
v  -0.2950 0.0720 -0.9116
v  -0.2193 0.1738 -0.6777
v  -0.1880 0.0720 -0.5808
v  -0.1880 -0.0720 -0.5808
v  -0.2193 -0.1738 -0.6777
v  -0.2636 -0.1738 -0.8147
v  -0.2950 -0.0720 -0.9116
v  5.0145 -0.0499 -1.1297
v  4.5026 -0.0499 -1.1303
v  4.5026 0.0511 -1.1303
v  5.0145 0.0511 -1.1297
v  3.0402 0.0720 -0.1956
v  5.0132 0.0720 -0.1933
v  4.5013 0.0720 -0.1939
v  4.1245 0.0720 -0.1944
v  3.7026 0.0720 -0.1949
v  3.3676 0.0720 -0.1953
v  3.0402 -0.0720 -0.1956
v  3.3676 -0.0720 -0.1953
v  3.7026 -0.0720 -0.1949
v  4.1245 -0.0720 -0.1944
v  4.5013 -0.0720 -0.1939
v  5.0132 -0.0720 -0.1933
v  5.0132 -0.0499 -0.1933
v  5.0132 0.0511 -0.1933
v  3.7035 0.0469 -0.9892
v  4.1255 0.0469 -0.9887
v  4.1255 -0.0469 -0.9887
v  3.7035 -0.0469 -0.9892
v  3.0416 0.0469 -0.7543
v  3.3690 0.0469 -0.7540
v  3.3690 -0.0557 -0.7540
v  3.0416 -0.0557 -0.7543
v  4.5013 -0.0499 -0.1939
v  4.5013 0.0511 -0.1939
v  4.1245 -0.0469 -0.1944
v  4.1245 0.0469 -0.1944
v  3.0402 0.0469 -0.1956
v  3.0402 -0.0557 -0.1956
v  3.7026 -0.0469 -0.1949
v  3.7026 0.0469 -0.1949
v  3.3676 -0.0557 -0.1953
v  3.3676 0.0469 -0.1953
# 160 vertices

vn 0.0984 0.3658 -0.9255
vn 0.0449 0.9054 -0.4221
vn 0.2127 0.9054 -0.3674
vn 0.4663 0.3658 -0.8054
vn -0.0357 0.9413 0.3356
vn -0.1691 0.9413 0.2921
vn -0.0968 0.4018 0.9106
vn -0.4588 0.4018 0.7925
vn -0.0968 -0.4018 0.9106
vn -0.4588 -0.4018 0.7925
vn -0.0357 -0.9413 0.3356
vn -0.1691 -0.9413 0.2921
vn 0.0449 -0.9054 -0.4221
vn 0.2127 -0.9054 -0.3674
vn 0.0984 -0.3658 -0.9255
vn 0.4663 -0.3658 -0.8054
vn 0.3437 0.9054 -0.2491
vn 0.7536 0.3658 -0.5462
vn -0.2733 0.9413 0.1981
vn -0.7415 0.4018 0.5374
vn -0.7415 -0.4018 0.5374
vn -0.2733 -0.9413 0.1981
vn 0.3437 -0.9054 -0.2491
vn 0.7536 -0.3658 -0.5462
vn 0.4153 0.9054 -0.0878
vn 0.8327 0.4899 -0.2581
vn -0.3302 0.9413 0.0698
vn -0.8959 0.4018 0.1893
vn -0.8959 -0.4018 0.1893
vn -0.3302 -0.9413 0.0698
vn 0.4153 -0.9054 -0.0878
vn 0.8327 -0.4899 -0.2581
vn 0.4151 0.9054 0.0887
vn 0.8321 0.4899 0.2601
vn -0.3301 0.9413 -0.0706
vn -0.8955 0.4018 -0.1914
vn -0.8955 -0.4018 -0.1914
vn -0.3301 -0.9413 -0.0706
vn 0.4151 -0.9054 0.0887
vn 0.8321 -0.4899 0.2601
vn 1.0000 0.0000 0.0012
vn 0.3431 0.9054 0.2499
vn 0.7523 0.3658 0.5479
vn -0.2728 0.9413 -0.1987
vn -0.7402 0.4018 -0.5391
vn -0.7402 -0.4018 -0.5391
vn -0.2728 -0.9413 -0.1987
vn 0.3431 -0.9054 0.2499
vn 0.7523 -0.3658 0.5479
vn 0.2118 0.9054 0.3679
vn 0.4644 0.3658 0.8065
vn -0.1684 0.9413 -0.2925
vn -0.4569 0.4018 -0.7936
vn -0.4569 -0.4018 -0.7936
vn -0.1684 -0.9413 -0.2925
vn 0.2118 -0.9054 0.3679
vn 0.4644 -0.3658 0.8065
vn 0.0439 0.9054 0.4222
vn 0.0962 0.3659 0.9257
vn -0.0349 0.9413 -0.3357
vn -0.0946 0.4018 -0.9108
vn -0.0946 -0.4018 -0.9108
vn -0.0349 -0.9413 -0.3357
vn 0.0439 -0.9054 0.4222
vn 0.0962 -0.3658 0.9257
vn -0.1316 0.9054 0.4036
vn -0.2886 0.3658 0.8848
vn 0.1047 0.9413 -0.3209
vn 0.2840 0.4018 -0.8706
vn 0.2840 -0.4018 -0.8706
vn 0.1047 -0.9413 -0.3209
vn -0.1316 -0.9054 0.4036
vn -0.2886 -0.3658 0.8848
vn -0.2844 0.9054 0.3151
vn -0.6236 0.3658 0.6909
vn 0.2261 0.9413 -0.2506
vn 0.6135 0.4018 -0.6798
vn 0.6135 -0.4018 -0.6798
vn 0.2261 -0.9413 -0.2506
vn -0.2844 -0.9054 0.3151
vn -0.6236 -0.3658 0.6909
vn -0.3880 0.9054 0.1722
vn -0.8507 0.3658 0.3775
vn 0.3085 0.9413 -0.1369
vn 0.8370 0.4018 -0.3715
vn 0.8370 -0.4018 -0.3715
vn 0.3085 -0.9413 -0.1369
vn -0.3880 -0.9054 0.1722
vn -0.8507 -0.3658 0.3775
vn -0.4245 0.9054 -0.0005
vn -0.9307 0.3658 -0.0011
vn 0.3375 0.9413 0.0004
vn 0.9157 0.4018 0.0011
vn 0.9157 -0.4018 0.0011
vn 0.3375 -0.9413 0.0004
vn -0.4245 -0.9054 -0.0005
vn -0.9307 -0.3658 -0.0011
vn -0.3876 0.9054 -0.1731
vn -0.8498 0.3658 -0.3795
vn 0.3082 0.9413 0.1376
vn 0.8361 0.4018 0.3734
vn 0.8361 -0.4018 0.3734
vn 0.3082 -0.9413 0.1376
vn -0.3876 -0.9054 -0.1731
vn -0.8498 -0.3658 -0.3795
vn -0.2837 0.9054 -0.3158
vn -0.6219 0.3658 -0.6924
vn 0.2256 0.9413 0.2511
vn 0.6119 0.4018 0.6812
vn 0.6119 -0.4018 0.6812
vn 0.2256 -0.9413 0.2511
vn -0.2837 -0.9054 -0.3158
vn -0.6219 -0.3658 -0.6924
vn -0.1307 0.9054 -0.4039
vn -0.2866 0.3658 -0.8855
vn 0.1039 0.9413 0.3211
vn 0.2819 0.4018 0.8712
vn 0.2819 -0.4018 0.8712
vn 0.1039 -0.9413 0.3211
vn -0.1307 -0.9054 -0.4039
vn -0.2866 -0.3658 -0.8855
vn 0.0012 0.0000 -1.0000
vn 0.0000 1.0000 -0.0000
vn -0.0012 0.0000 1.0000
vn 0.0000 -1.0000 -0.0000
vn 1.0000 0.0000 0.0014
vn -1.0000 0.0000 -0.0014
vn -1.0000 0.0000 -0.0012
vn -1.0000 0.0000 -0.0023
vn 1.0000 0.0000 0.0023
# 130 vertex normals

vt 0.0000 0.0000 0.0000
vt 0.1250 0.0000 0.0000
vt 0.1250 0.0667 0.0000
vt 0.0000 0.0667 0.0000
vt 0.2500 0.0000 0.0000
vt 0.2500 0.0667 0.0000
vt 0.3750 0.0000 0.0000
vt 0.3750 0.0667 0.0000
vt 0.5000 0.0000 0.0000
vt 0.5000 0.0667 0.0000
vt 0.6250 0.0000 0.0000
vt 0.6250 0.0667 0.0000
vt 0.7500 0.0000 0.0000
vt 0.7500 0.0667 0.0000
vt 0.8750 0.0000 0.0000
vt 0.8750 0.0667 0.0000
vt 1.0000 0.0000 0.0000
vt 1.0000 0.0667 0.0000
vt 0.1250 0.1333 0.0000
vt 0.0000 0.1333 0.0000
vt 0.2500 0.1333 0.0000
vt 0.3750 0.1333 0.0000
vt 0.5000 0.1333 0.0000
vt 0.6250 0.1333 0.0000
vt 0.7500 0.1333 0.0000
vt 0.8750 0.1333 0.0000
vt 1.0000 0.1333 0.0000
vt 0.1250 0.2000 0.0000
vt 0.0000 0.2000 0.0000
vt 0.2500 0.2000 0.0000
vt 0.3750 0.2000 0.0000
vt 0.5000 0.2000 0.0000
vt 0.6250 0.2000 0.0000
vt 0.7500 0.2000 0.0000
vt 0.8750 0.2000 0.0000
vt 1.0000 0.2000 0.0000
vt 0.1250 0.2667 0.0000
vt 0.0000 0.2667 0.0000
vt 0.2500 0.2667 0.0000
vt 0.3750 0.2667 0.0000
vt 0.5000 0.2667 0.0000
vt 0.6250 0.2667 0.0000
vt 0.7500 0.2667 0.0000
vt 0.8750 0.2667 0.0000
vt 1.0000 0.2667 0.0000
vt 0.1250 0.3333 0.0000
vt 0.0000 0.3333 0.0000
vt 0.2500 0.3333 0.0000
vt 0.3750 0.3333 0.0000
vt 0.5000 0.3333 0.0000
vt 0.6250 0.3333 0.0000
vt 0.7500 0.3333 0.0000
vt 0.8750 0.3333 0.0000
vt 1.0000 0.3333 0.0000
vt 0.1250 0.4000 0.0000
vt 0.0000 0.4000 0.0000
vt 0.2500 0.4000 0.0000
vt 0.3750 0.4000 0.0000
vt 0.5000 0.4000 0.0000
vt 0.6250 0.4000 0.0000
vt 0.7500 0.4000 0.0000
vt 0.8750 0.4000 0.0000
vt 1.0000 0.4000 0.0000
vt 0.1250 0.4667 0.0000
vt 0.0000 0.4667 0.0000
vt 0.2500 0.4667 0.0000
vt 0.3750 0.4667 0.0000
vt 0.5000 0.4667 0.0000
vt 0.6250 0.4667 0.0000
vt 0.7500 0.4667 0.0000
vt 0.8750 0.4667 0.0000
vt 1.0000 0.4667 0.0000
vt 0.1250 0.5333 0.0000
vt 0.0000 0.5333 0.0000
vt 0.2500 0.5333 0.0000
vt 0.3750 0.5333 0.0000
vt 0.5000 0.5333 0.0000
vt 0.6250 0.5333 0.0000
vt 0.7500 0.5333 0.0000
vt 0.8750 0.5333 0.0000
vt 1.0000 0.5333 0.0000
vt 0.1250 0.6000 0.0000
vt 0.0000 0.6000 0.0000
vt 0.2500 0.6000 0.0000
vt 0.3750 0.6000 0.0000
vt 0.5000 0.6000 0.0000
vt 0.6250 0.6000 0.0000
vt 0.7500 0.6000 0.0000
vt 0.8750 0.6000 0.0000
vt 1.0000 0.6000 0.0000
vt 0.1250 0.6667 0.0000
vt 0.0000 0.6667 0.0000
vt 0.2500 0.6667 0.0000
vt 0.3750 0.6667 0.0000
vt 0.5000 0.6667 0.0000
vt 0.6250 0.6667 0.0000
vt 0.7500 0.6667 0.0000
vt 0.8750 0.6667 0.0000
vt 1.0000 0.6667 0.0000
vt 0.1250 0.7333 0.0000
vt 0.0000 0.7333 0.0000
vt 0.2500 0.7333 0.0000
vt 0.3750 0.7333 0.0000
vt 0.5000 0.7333 0.0000
vt 0.6250 0.7333 0.0000
vt 0.7500 0.7333 0.0000
vt 0.8750 0.7333 0.0000
vt 1.0000 0.7333 0.0000
vt 0.1250 0.8000 0.0000
vt 0.0000 0.8000 0.0000
vt 0.2500 0.8000 0.0000
vt 0.3750 0.8000 0.0000
vt 0.5000 0.8000 0.0000
vt 0.6250 0.8000 0.0000
vt 0.7500 0.8000 0.0000
vt 0.8750 0.8000 0.0000
vt 1.0000 0.8000 0.0000
vt 0.1250 0.8667 0.0000
vt 0.0000 0.8667 0.0000
vt 0.2500 0.8667 0.0000
vt 0.3750 0.8667 0.0000
vt 0.5000 0.8667 0.0000
vt 0.6250 0.8667 0.0000
vt 0.7500 0.8667 0.0000
vt 0.8750 0.8667 0.0000
vt 1.0000 0.8667 0.0000
vt 0.1250 0.9333 0.0000
vt 0.0000 0.9333 0.0000
vt 0.2500 0.9333 0.0000
vt 0.3750 0.9333 0.0000
vt 0.5000 0.9333 0.0000
vt 0.6250 0.9333 0.0000
vt 0.7500 0.9333 0.0000
vt 0.8750 0.9333 0.0000
vt 1.0000 0.9333 0.0000
vt 0.1250 1.0000 0.0000
vt 0.0000 1.0000 0.0000
vt 0.2500 1.0000 0.0000
vt 0.3750 1.0000 0.0000
vt 0.5000 1.0000 0.0000
vt 0.6250 1.0000 0.0000
vt 0.7500 1.0000 0.0000
vt 0.8750 1.0000 0.0000
vt 1.0000 1.0000 0.0000
vt 0.9082 0.2000 0.0000
vt 0.9668 0.2000 0.0000
vt 0.9782 0.2000 0.0000
vt 0.8968 0.2000 0.0000
# 148 texture coords

g Torus001
usemtl wire_228214153
s 1
f 1/1/1 2/2/2 3/3/3 4/4/4 
f 2/2/2 5/5/5 6/6/6 3/3/3 
f 5/5/5 7/7/7 8/8/8 6/6/6 
f 7/7/7 9/9/9 10/10/10 8/8/8 
f 9/9/9 11/11/11 12/12/12 10/10/10 
f 11/11/11 13/13/13 14/14/14 12/12/12 
f 13/13/13 15/15/15 16/16/16 14/14/14 
f 15/15/15 1/17/1 4/18/4 16/16/16 
f 4/4/4 3/3/3 17/19/17 18/20/18 
f 3/3/3 6/6/6 19/21/19 17/19/17 
f 6/6/6 8/8/8 20/22/20 19/21/19 
f 8/8/8 10/10/10 21/23/21 20/22/20 
f 10/10/10 12/12/12 22/24/22 21/23/21 
f 12/12/12 14/14/14 23/25/23 22/24/22 
f 14/14/14 16/16/16 24/26/24 23/25/23 
f 16/16/16 4/18/4 18/27/18 24/26/24 
f 18/20/18 17/19/17 25/28/25 26/29/26 
f 17/19/17 19/21/19 27/30/27 25/28/25 
f 19/21/19 20/22/20 28/31/28 27/30/27 
f 20/22/20 21/23/21 29/32/29 28/31/28 
f 21/23/21 22/24/22 30/33/30 29/32/29 
f 22/24/22 23/25/23 31/34/31 30/33/30 
f 23/25/23 24/26/24 32/35/32 31/34/31 
f 24/26/24 18/27/18 26/36/26 32/35/32 
f 26/29/26 25/28/25 33/37/33 34/38/34 
f 25/28/25 27/30/27 35/39/35 33/37/33 
f 27/30/27 28/31/28 36/40/36 35/39/35 
f 28/31/28 29/32/29 37/41/37 36/40/36 
f 29/32/29 30/33/30 38/42/38 37/41/37 
f 30/33/30 31/34/31 39/43/39 38/42/38 
f 31/34/31 32/35/32 40/44/40 39/43/39 
f 41/35/41 42/36/41 43/45/41 44/44/41 
f 34/38/34 33/37/33 45/46/42 46/47/43 
f 33/37/33 35/39/35 47/48/44 45/46/42 
f 35/39/35 36/40/36 48/49/45 47/48/44 
f 36/40/36 37/41/37 49/50/46 48/49/45 
f 37/41/37 38/42/38 50/51/47 49/50/46 
f 38/42/38 39/43/39 51/52/48 50/51/47 
f 39/43/39 40/44/40 52/53/49 51/52/48 
f 40/44/40 34/45/34 46/54/43 52/53/49 
f 46/47/43 45/46/42 53/55/50 54/56/51 
f 45/46/42 47/48/44 55/57/52 53/55/50 
f 47/48/44 48/49/45 56/58/53 55/57/52 
f 48/49/45 49/50/46 57/59/54 56/58/53 
f 49/50/46 50/51/47 58/60/55 57/59/54 
f 50/51/47 51/52/48 59/61/56 58/60/55 
f 51/52/48 52/53/49 60/62/57 59/61/56 
f 52/53/49 46/54/43 54/63/51 60/62/57 
f 54/56/51 53/55/50 61/64/58 62/65/59 
f 53/55/50 55/57/52 63/66/60 61/64/58 
f 55/57/52 56/58/53 64/67/61 63/66/60 
f 56/58/53 57/59/54 65/68/62 64/67/61 
f 57/59/54 58/60/55 66/69/63 65/68/62 
f 58/60/55 59/61/56 67/70/64 66/69/63 
f 59/61/56 60/62/57 68/71/65 67/70/64 
f 60/62/57 54/63/51 62/72/59 68/71/65 
f 62/65/59 61/64/58 69/73/66 70/74/67 
f 61/64/58 63/66/60 71/75/68 69/73/66 
f 63/66/60 64/67/61 72/76/69 71/75/68 
f 64/67/61 65/68/62 73/77/70 72/76/69 
f 65/68/62 66/69/63 74/78/71 73/77/70 
f 66/69/63 67/70/64 75/79/72 74/78/71 
f 67/70/64 68/71/65 76/80/73 75/79/72 
f 68/71/65 62/72/59 70/81/67 76/80/73 
f 70/74/67 69/73/66 77/82/74 78/83/75 
f 69/73/66 71/75/68 79/84/76 77/82/74 
f 71/75/68 72/76/69 80/85/77 79/84/76 
f 72/76/69 73/77/70 81/86/78 80/85/77 
f 73/77/70 74/78/71 82/87/79 81/86/78 
f 74/78/71 75/79/72 83/88/80 82/87/79 
f 75/79/72 76/80/73 84/89/81 83/88/80 
f 76/80/73 70/81/67 78/90/75 84/89/81 
f 78/83/75 77/82/74 85/91/82 86/92/83 
f 77/82/74 79/84/76 87/93/84 85/91/82 
f 79/84/76 80/85/77 88/94/85 87/93/84 
f 80/85/77 81/86/78 89/95/86 88/94/85 
f 81/86/78 82/87/79 90/96/87 89/95/86 
f 82/87/79 83/88/80 91/97/88 90/96/87 
f 83/88/80 84/89/81 92/98/89 91/97/88 
f 84/89/81 78/90/75 86/99/83 92/98/89 
f 86/92/83 85/91/82 93/100/90 94/101/91 
f 85/91/82 87/93/84 95/102/92 93/100/90 
f 87/93/84 88/94/85 96/103/93 95/102/92 
f 88/94/85 89/95/86 97/104/94 96/103/93 
f 89/95/86 90/96/87 98/105/95 97/104/94 
f 90/96/87 91/97/88 99/106/96 98/105/95 
f 91/97/88 92/98/89 100/107/97 99/106/96 
f 92/98/89 86/99/83 94/108/91 100/107/97 
f 94/101/91 93/100/90 101/109/98 102/110/99 
f 93/100/90 95/102/92 103/111/100 101/109/98 
f 95/102/92 96/103/93 104/112/101 103/111/100 
f 96/103/93 97/104/94 105/113/102 104/112/101 
f 97/104/94 98/105/95 106/114/103 105/113/102 
f 98/105/95 99/106/96 107/115/104 106/114/103 
f 99/106/96 100/107/97 108/116/105 107/115/104 
f 100/107/97 94/108/91 102/117/99 108/116/105 
f 102/110/99 101/109/98 109/118/106 110/119/107 
f 101/109/98 103/111/100 111/120/108 109/118/106 
f 103/111/100 104/112/101 112/121/109 111/120/108 
f 104/112/101 105/113/102 113/122/110 112/121/109 
f 105/113/102 106/114/103 114/123/111 113/122/110 
f 106/114/103 107/115/104 115/124/112 114/123/111 
f 107/115/104 108/116/105 116/125/113 115/124/112 
f 108/116/105 102/117/99 110/126/107 116/125/113 
f 110/119/107 109/118/106 117/127/114 118/128/115 
f 109/118/106 111/120/108 119/129/116 117/127/114 
f 111/120/108 112/121/109 120/130/117 119/129/116 
f 112/121/109 113/122/110 121/131/118 120/130/117 
f 113/122/110 114/123/111 122/132/119 121/131/118 
f 114/123/111 115/124/112 123/133/120 122/132/119 
f 115/124/112 116/125/113 124/134/121 123/133/120 
f 116/125/113 110/126/107 118/135/115 124/134/121 
f 118/128/115 117/127/114 2/136/2 1/137/1 
f 117/127/114 119/129/116 5/138/5 2/136/2 
f 119/129/116 120/130/117 7/139/7 5/138/5 
f 120/130/117 121/131/118 9/140/9 7/139/7 
f 121/131/118 122/132/119 11/141/11 9/140/9 
f 122/132/119 123/133/120 13/142/13 11/141/11 
f 123/133/120 124/134/121 15/143/15 13/142/13 
f 124/134/121 118/135/115 1/144/1 15/143/15 
s off
f 125/145/122 126/145/122 127/146/122 128/146/122 
f 26/36/123 34/45/123 43/45/123 129/36/123 
f 43/45/123 42/36/123 130/36/123 131/36/123 
f 43/45/123 131/36/123 132/36/123 133/36/123 
f 43/45/123 133/36/123 134/36/123 129/36/123 
f 34/45/124 40/44/124 44/44/124 43/45/124 
f 40/44/125 32/35/125 135/35/125 136/35/125 
f 40/44/125 136/35/125 137/35/125 138/35/125 
f 40/44/125 138/35/125 139/35/125 140/35/125 
f 40/44/125 140/35/125 41/35/125 44/44/125 
f 42/36/122 41/35/122 140/35/122 141/145/122 
f 42/36/122 141/145/122 142/146/122 130/36/122 
f 143/147/122 144/147/122 145/148/122 146/148/122 
f 147/147/122 148/147/122 149/148/122 150/148/122 
f 151/145/122 139/35/122 138/35/122 152/146/122 
f 131/36/122 152/146/122 138/35/122 153/148/122 
f 131/36/122 153/148/122 154/147/122 132/36/122 
f 32/35/122 26/36/122 129/36/122 155/147/122 
f 32/35/122 155/147/122 156/148/122 135/35/122 
f 157/148/122 137/35/122 136/35/122 158/147/122 
f 133/36/122 158/147/122 136/35/122 159/148/122 
f 133/36/122 159/148/122 160/147/122 134/36/122 
f 140/35/122 139/35/122 151/145/122 141/145/122 
f 131/36/122 130/36/122 142/146/122 152/146/122 
f 142/146/126 141/145/126 125/145/126 128/146/126 
f 141/145/125 151/145/125 126/145/125 125/145/125 
f 151/145/127 152/146/127 127/146/127 126/145/127 
f 152/146/123 142/146/123 128/146/123 127/146/123 
f 133/36/122 132/36/122 154/147/122 158/147/122 
f 138/35/122 137/35/122 157/148/122 153/148/122 
f 157/148/128 158/147/128 143/147/128 146/148/128 
f 158/147/123 154/147/123 144/147/123 143/147/123 
f 154/147/41 153/148/41 145/148/41 144/147/41 
f 153/148/125 157/148/125 146/148/125 145/148/125 
f 129/36/122 134/36/122 160/147/122 155/147/122 
f 136/35/122 135/35/122 156/148/122 159/148/122 
f 156/148/129 155/147/129 147/147/129 150/148/129 
f 155/147/123 160/147/123 148/147/123 147/147/123 
f 160/147/130 159/148/130 149/148/130 148/147/130 
f 159/148/125 156/148/125 150/148/125 149/148/125 
# 160 polygons

