# Blender v2.76 (sub 0) OBJ File: 'demon01Copy.blend'
# www.blender.org
mtllib demonHand.mtl
o Cylinder.001
v 0.344643 9.158323 7.176372
v 0.393040 9.042406 6.968929
v 0.391687 8.882895 6.876064
v 0.343620 8.735782 6.916543
v 0.257794 8.745547 7.111858
v 0.430988 9.129099 7.291553
v 0.550733 8.986578 7.171804
v 0.574944 8.804687 7.105112
v 0.496539 8.698306 7.124328
v 0.339974 8.732575 7.232328
v 0.526122 9.148462 7.495628
v 0.779237 8.950044 7.505516
v 0.837980 8.691775 7.468912
v 0.705274 8.575551 7.445190
v 0.401067 8.668046 7.356925
v 0.551175 9.102119 7.783084
v 0.720507 8.843372 7.831506
v 0.754744 8.574256 7.787475
v 0.644818 8.462922 7.684520
v 0.408539 8.607802 7.539043
v 0.437393 9.080713 7.915262
v 0.523432 8.806297 8.060446
v 0.527182 8.529832 8.051470
v 0.448186 8.363557 7.899198
v 0.311054 8.549802 7.688922
v 0.185497 8.755510 8.726284
v 0.059651 7.606189 10.217184
v 0.060402 7.670006 10.221308
v 0.185712 8.530538 8.641287
v 0.090184 8.090470 9.818445
v 0.092330 7.978256 9.751148
v 0.128961 8.429591 9.345711
v 0.132503 8.273890 9.241919
v 0.237262 8.968058 8.029865
v 0.239177 8.630721 7.906082
v 0.850549 8.773326 8.406984
v 1.198990 7.636993 10.053366
v 1.204633 7.705637 10.052151
v 0.808606 8.526983 8.338732
v 1.113241 8.130834 9.599463
v 1.085364 8.006353 9.539503
v 1.000410 8.464072 9.079800
v 0.958587 8.290700 8.985846
v 0.663751 8.956727 7.666326
v 0.603426 8.587460 7.567281
v 0.578335 8.796544 8.488363
v 1.093762 7.665307 10.054457
v 1.099404 7.731915 10.056665
v 0.543477 8.549849 8.417757
v 0.974275 8.143467 9.636381
v 0.946603 8.020514 9.576820
v 0.816333 8.480102 9.131828
v 0.774042 8.306145 9.037924
v 0.303418 8.985917 7.774002
v 0.246957 8.616390 7.673673
v 0.722748 8.856242 8.471714
v 0.479192 9.039466 7.723285
v 1.175339 7.615402 10.141333
v 1.181121 7.680427 10.143372
v 1.058299 8.173267 9.646011
v 0.920927 8.528343 9.131609
v 0.872453 8.328405 9.023260
v 1.026403 8.032576 9.576958
v 0.408420 8.606652 7.598121
v 0.675335 8.571951 8.380732
v 0.000000 9.191645 7.057941
v 0.000000 9.088548 6.849727
v 0.000000 8.951456 6.757797
v 0.000000 8.794824 6.798158
v 0.000000 8.780499 7.017816
v -0.344643 9.158323 7.176372
v -0.393040 9.042406 6.968929
v -0.391687 8.882895 6.876064
v -0.343620 8.735782 6.916543
v -0.257794 8.745547 7.111858
v 0.000000 8.661081 7.477108
v 0.000000 9.207924 7.568916
v -0.430988 9.129099 7.291553
v -0.550733 8.986578 7.171804
v -0.574944 8.804687 7.105112
v -0.496539 8.698306 7.124328
v -0.339974 8.732575 7.232328
v -0.526122 9.148462 7.495628
v -0.779237 8.950044 7.505516
v -0.837980 8.691775 7.468912
v -0.705274 8.575551 7.445190
v -0.401067 8.668046 7.356925
v -0.551175 9.102119 7.783084
v -0.720507 8.843372 7.831506
v -0.754744 8.574256 7.787475
v -0.644818 8.462922 7.684520
v -0.408539 8.607802 7.539043
v -0.437393 9.080713 7.915262
v -0.523432 8.806297 8.060446
v -0.527182 8.529832 8.051470
v -0.448186 8.363557 7.899198
v -0.311054 8.549802 7.688922
v 0.000000 9.104156 8.017097
v 0.000000 8.803882 8.221651
v 0.000000 8.539544 8.242025
v 0.000000 8.352567 8.061689
v 0.000000 8.561189 7.775217
v -0.185497 8.755510 8.726284
v -0.059651 7.606189 10.217184
v -0.060402 7.670006 10.221308
v -0.185712 8.530538 8.641287
v -0.090184 8.090470 9.818445
v -0.092330 7.978256 9.751148
v -0.128961 8.429591 9.345711
v -0.132503 8.273890 9.241919
v -0.237262 8.968058 8.029865
v -0.239177 8.630721 7.906082
v 0.000000 8.821388 8.749208
v 0.000000 9.031558 8.029030
v 0.000000 7.578890 10.286236
v 0.000000 7.639140 10.293070
v 0.000000 8.123751 9.845079
v 0.000000 8.481494 9.370756
v 0.000000 8.301923 9.250990
v 0.000000 7.996993 9.767775
v 0.000000 8.636804 7.875961
v 0.000000 8.562669 8.640694
v -0.850549 8.773326 8.406984
v -1.198990 7.636993 10.053366
v -1.204633 7.705637 10.052151
v -0.808606 8.526983 8.338732
v -1.113241 8.130834 9.599463
v -1.085364 8.006353 9.539503
v -1.000410 8.464072 9.079800
v -0.958587 8.290700 8.985846
v -0.663751 8.956727 7.666326
v -0.603426 8.587460 7.567281
v -0.578335 8.796544 8.488363
v -1.093762 7.665307 10.054457
v -1.099404 7.731915 10.056665
v -0.543477 8.549849 8.417757
v -0.974275 8.143467 9.636381
v -0.946603 8.020514 9.576820
v -0.816333 8.480102 9.131828
v -0.774042 8.306145 9.037924
v -0.303418 8.985917 7.774002
v -0.246957 8.616390 7.673673
v -0.722748 8.856242 8.471714
v -0.479192 9.039466 7.723285
v -1.175339 7.615402 10.141333
v -1.181121 7.680427 10.143372
v -1.058299 8.173267 9.646011
v -0.920927 8.528343 9.131609
v -0.872453 8.328405 9.023260
v -1.026403 8.032576 9.576958
v -0.408420 8.606652 7.598121
v -0.675335 8.571951 8.380732
vt 0.910289 0.141360
vt 0.893003 0.146053
vt 0.889504 0.133213
vt 0.910554 0.102781
vt 0.910472 0.114775
vt 0.890449 0.110484
vt 0.910418 0.122655
vt 0.886154 0.120926
vt 0.910365 0.130440
vt 0.878010 0.144160
vt 0.866819 0.134922
vt 0.888194 0.151930
vt 0.894654 0.097992
vt 0.878041 0.098046
vt 0.869924 0.104209
vt 0.868680 0.165514
vt 0.884649 0.162793
vt 0.863577 0.073346
vt 0.884586 0.081578
vt 0.850478 0.075065
vt 0.856497 0.048776
vt 0.850478 0.166156
vt 0.870588 0.184280
vt 0.884263 0.176461
vt 0.868913 0.055502
vt 0.884341 0.068873
vt 0.882359 0.041099
vt 0.890926 0.058614
vt 0.872999 0.027187
vt 0.854467 0.192838
vt 0.881301 0.197153
vt 0.889562 0.182913
vt 0.909975 0.186597
vt 0.909847 0.204966
vt 0.911036 0.030775
vt 0.910881 0.054046
vt 0.911155 0.012797
vt 0.909720 0.223135
vt 0.910748 0.073926
vt 0.910123 0.165402
vt 0.889156 0.090509
vt 0.787552 0.118165
vt 0.774428 0.120463
vt 0.769542 0.073657
vt 0.790425 0.192551
vt 0.781000 0.159911
vt 0.789846 0.159635
vt 0.775108 0.039305
vt 0.786685 0.040895
vt 0.784651 0.073828
vt 0.756217 0.073534
vt 0.765472 0.028129
vt 0.793432 0.193642
vt 0.796755 0.200657
vt 0.789594 0.200935
vt 0.774490 0.161649
vt 0.764765 0.122000
vt 0.796757 0.117949
vt 0.796756 0.159789
vt 0.796761 0.026863
vt 0.796759 0.073701
vt 0.789924 0.117691
vt 0.775961 0.119938
vt 0.770411 0.072520
vt 0.791626 0.193925
vt 0.782351 0.159741
vt 0.791862 0.159629
vt 0.774536 0.035947
vt 0.787748 0.036940
vt 0.787040 0.072344
vt 0.803691 0.117134
vt 0.805867 0.071676
vt 0.822696 0.071697
vt 0.802746 0.159004
vt 0.812142 0.158950
vt 0.804102 0.191305
vt 0.817753 0.119097
vt 0.804447 0.035820
vt 0.817611 0.034813
vt 0.827297 0.027033
vt 0.832445 0.072380
vt 0.804898 0.200837
vt 0.797897 0.201512
vt 0.800989 0.192555
vt 0.825442 0.120325
vt 0.817824 0.160502
vt 0.796668 0.117406
vt 0.797170 0.159803
vt 0.796213 0.025727
vt 0.796739 0.071906
vt 0.759492 0.072644
vt 0.794847 0.195165
vt 0.790595 0.201512
vt 0.776942 0.160883
vt 0.765412 0.027452
vt 0.768242 0.120846
vt 0.931186 0.133501
vt 0.927510 0.146292
vt 0.926517 0.098207
vt 0.930553 0.110757
vt 0.934708 0.121259
vt 0.953848 0.135525
vt 0.942529 0.144608
vt 0.932237 0.152236
vt 0.932117 0.090798
vt 0.943131 0.098486
vt 0.951166 0.104758
vt 0.969753 0.166986
vt 0.951561 0.166090
vt 0.935631 0.163148
vt 0.936807 0.081928
vt 0.957926 0.073976
vt 0.971003 0.075869
vt 0.952827 0.056061
vt 0.965332 0.049500
vt 0.965392 0.193611
vt 0.949392 0.184829
vt 0.935826 0.176820
vt 0.937222 0.069227
vt 0.930773 0.058880
vt 0.939573 0.041480
vt 0.949118 0.027693
vt 0.947532 0.212283
vt 0.938500 0.197552
vt 0.930438 0.183198
vt 0.805961 0.118165
vt 0.808866 0.073829
vt 0.823975 0.073659
vt 0.803666 0.159636
vt 0.812512 0.159912
vt 0.803086 0.192551
vt 0.819086 0.120465
vt 0.806835 0.040896
vt 0.818412 0.039306
vt 0.828049 0.028132
vt 0.837301 0.073537
vt 0.803916 0.200935
vt 0.800079 0.193642
vt 0.828749 0.122002
vt 0.819021 0.161650
vt 0.804100 0.117168
vt 0.806975 0.072634
vt 0.823603 0.072803
vt 0.802166 0.158361
vt 0.811679 0.158470
vt 0.802405 0.192055
vt 0.818064 0.119373
vt 0.806258 0.037869
vt 0.819468 0.036891
vt 0.790332 0.116624
vt 0.776270 0.118552
vt 0.771321 0.072004
vt 0.789925 0.189481
vt 0.781883 0.157695
vt 0.791280 0.157747
vt 0.776401 0.035785
vt 0.789562 0.036772
vt 0.788149 0.071981
vt 0.766715 0.028147
vt 0.789128 0.198846
vt 0.793039 0.190709
vt 0.768580 0.119758
vt 0.797356 0.116889
vt 0.776199 0.159220
vt 0.796857 0.158532
vt 0.797792 0.026860
vt 0.761574 0.072676
vt 0.797276 0.072205
vt 0.828588 0.028547
vt 0.834521 0.072923
vt 0.803437 0.199509
vt 0.796131 0.199509
vt 0.799183 0.193273
vt 0.825783 0.120264
vt 0.817089 0.159591
vt 0.872064 0.211757
vn 0.000000 0.959700 -0.280800
vn 0.350000 0.916000 -0.195800
vn 0.528400 0.625200 -0.574300
vn 0.000000 -0.992000 -0.126400
vn 0.000000 -0.691400 -0.722400
vn 0.234600 -0.797900 -0.555200
vn 0.000000 0.194800 -0.980800
vn 0.553000 0.041200 -0.832100
vn 0.000000 0.731300 -0.682000
vn 0.728000 0.531600 -0.432800
vn 0.777700 -0.128900 -0.615200
vn 0.411000 0.892100 -0.187900
vn -0.092000 -0.991600 -0.090800
vn 0.228700 -0.877800 -0.420800
vn 0.861900 0.497400 -0.098200
vn 0.393700 0.915600 -0.081200
vn 0.349400 -0.846600 -0.401400
vn -0.185000 -0.933700 -0.306600
vn 0.944500 -0.227100 -0.237400
vn 0.848200 -0.411400 0.333600
vn 0.824900 0.284800 0.488400
vn 0.479100 0.808700 0.341200
vn 0.336600 -0.921500 -0.193600
vn -0.158400 -0.908300 -0.387100
vn 0.228100 -0.973000 0.034300
vn -0.161800 -0.861000 -0.482200
vn 0.551400 -0.395900 0.734200
vn 0.523500 0.249000 0.814800
vn 0.318700 0.764100 0.560800
vn 0.000000 0.805200 0.592900
vn 0.000000 0.309700 0.950800
vn 0.000000 -0.976600 0.215000
vn 0.000000 -0.878600 -0.477400
vn 0.000000 -0.322700 0.946500
vn 0.000000 -0.950000 -0.312100
vn 0.000000 0.995800 0.091800
vn -0.155900 -0.966400 -0.204200
vn -0.641800 0.706300 0.298600
vn -0.818900 -0.457100 -0.347000
vn -0.801100 -0.532800 -0.272500
vn -0.839000 -0.257800 -0.479300
vn -0.820700 -0.400200 -0.407700
vn -0.632700 0.664200 0.398100
vn -0.685400 -0.642200 0.343000
vn -0.617100 0.455700 0.641500
vn -0.675700 0.723600 0.140700
vn 0.000000 -0.922400 -0.386300
vn 0.000000 -0.919100 0.394000
vn -0.618500 0.779300 0.100700
vn 0.000000 0.822100 -0.569200
vn 0.000000 -0.204900 -0.978800
vn 0.000000 -0.740700 -0.671800
vn 0.000000 -0.840100 -0.542300
vn 0.000000 0.887900 0.459900
vn 0.000000 0.818500 0.574400
vn 0.000000 0.493400 0.869800
vn 0.000000 0.964700 0.263400
vn -0.427800 0.788100 0.442600
vn -0.935900 -0.351800 0.014100
vn -0.898100 -0.434600 0.067200
vn -0.975800 -0.195300 -0.098100
vn -0.949800 -0.310000 -0.041900
vn -0.384800 0.750400 0.537400
vn -0.584200 -0.539300 0.606500
vn -0.361300 0.541600 0.759000
vn -0.527000 0.794800 0.300800
vn 0.694700 0.715400 0.074900
vn 0.695400 0.711500 -0.100800
vn 0.705100 -0.543500 -0.455400
vn 0.728100 0.661700 0.178800
vn 0.700000 -0.436400 -0.565200
vn 0.708200 -0.328100 -0.625100
vn 0.716900 -0.474000 -0.511300
vn 0.805200 0.448900 0.387400
vn 0.753200 -0.633900 0.175600
vn 0.081900 -0.901200 0.425500
vn -0.151400 -0.938300 -0.310800
vn -0.281400 -0.242400 -0.928400
vn -0.092700 0.778100 -0.621200
vn 0.685100 0.728400 -0.001000
vn -0.206200 -0.865100 -0.457100
vn -0.247900 -0.773200 -0.583600
vn 0.180800 0.911700 0.368900
vn 0.229500 0.845300 0.482400
vn 0.285700 0.537900 0.793100
vn 0.129900 0.974200 0.184200
vn -0.450500 0.840800 0.300000
vn -0.528400 0.625200 -0.574300
vn -0.350000 0.916000 -0.195700
vn 0.092000 -0.991600 -0.090800
vn -0.234600 -0.797900 -0.555200
vn -0.553000 0.041200 -0.832100
vn -0.777700 -0.128900 -0.615200
vn -0.728000 0.531600 -0.432800
vn -0.411000 0.892100 -0.187900
vn 0.155900 -0.966400 -0.204200
vn -0.228700 -0.877800 -0.420800
vn -0.944500 -0.227100 -0.237400
vn -0.861900 0.497400 -0.098200
vn -0.393700 0.915600 -0.081200
vn 0.185000 -0.933700 -0.306600
vn -0.349400 -0.846600 -0.401400
vn -0.336600 -0.921500 -0.193600
vn -0.848200 -0.411400 0.333600
vn -0.824900 0.284800 0.488400
vn -0.479100 0.808700 0.341200
vn 0.158400 -0.908300 -0.387100
vn 0.161800 -0.861000 -0.482200
vn -0.228100 -0.973000 0.034300
vn -0.551400 -0.395900 0.734200
vn -0.523500 0.249000 0.814800
vn -0.318700 0.764100 0.560800
vn 0.641800 0.706300 0.298600
vn 0.675700 0.723600 0.140700
vn 0.801100 -0.532800 -0.272500
vn 0.632700 0.664200 0.398100
vn 0.820700 -0.400200 -0.407700
vn 0.839000 -0.257800 -0.479300
vn 0.818900 -0.457100 -0.347000
vn 0.617100 0.455700 0.641500
vn 0.685400 -0.642200 0.343000
vn 0.618500 0.779300 0.100700
vn 0.427800 0.788100 0.442600
vn 0.527000 0.794800 0.300800
vn 0.898100 -0.434600 0.067200
vn 0.384800 0.750400 0.537400
vn 0.949800 -0.310000 -0.041900
vn 0.975800 -0.195300 -0.098100
vn 0.935900 -0.351800 0.014100
vn 0.361300 0.541600 0.759000
vn 0.584200 -0.539300 0.606500
vn -0.694700 0.715400 0.074900
vn -0.716900 -0.474000 -0.511300
vn -0.705100 -0.543500 -0.455400
vn -0.708200 -0.328100 -0.625100
vn -0.700000 -0.436400 -0.565200
vn -0.728100 0.661700 0.178800
vn -0.753200 -0.633900 0.175600
vn -0.805200 0.448900 0.387400
vn -0.695400 0.711500 -0.100800
vn -0.081900 -0.901200 0.425500
vn 0.281400 -0.242400 -0.928400
vn -0.685100 0.728400 -0.001000
vn 0.206200 -0.865100 -0.457100
vn -0.180800 0.911700 0.368900
vn 0.247900 -0.773200 -0.583600
vn -0.229500 0.845300 0.482400
vn -0.285700 0.537900 0.793100
vn 0.151400 -0.938300 -0.310800
vn -0.129900 0.974200 0.184200
vn 0.092700 0.778100 -0.621200
vn 0.450500 0.840800 0.300000
usemtl Material.002
s 1
f 66/1/1 1/2/2 2/3/3
f 70/4/4 69/5/5 4/6/6
f 69/5/5 68/7/7 3/8/8
f 67/9/9 2/3/3 3/8/8
f 2/3/3 7/10/10 8/11/11
f 1/2/2 6/12/12 7/10/10
f 5/13/13 4/6/6 9/14/14
f 4/6/6 3/8/8 8/15/11
f 8/11/11 7/10/10 12/16/15
f 7/10/10 6/12/12 11/17/16
f 9/14/14 14/18/17 15/19/18
f 8/15/11 13/20/19 14/18/17
f 14/18/17 13/20/19 18/21/20
f 13/22/19 12/16/15 17/23/21
f 12/16/15 11/17/16 16/24/22
f 14/18/17 19/25/23 20/26/24
f 19/25/23 24/27/25 25/28/26
f 19/25/23 18/21/20 23/29/27
f 18/30/20 17/23/21 22/31/28
f 17/23/21 16/24/22 21/32/29
f 21/32/29 98/33/30 99/34/31
f 24/27/25 101/35/32 102/36/33
f 23/29/27 100/37/34 101/35/32
f 22/31/28 99/34/31 100/38/34
f 76/39/35 70/4/4 5/13/13
f 66/1/1 77/40/36 1/2/2
f 76/39/35 5/13/13 10/41/37
f 1/2/2 77/40/36 6/12/12
f 76/39/35 10/41/37 15/19/18
f 6/12/12 77/40/36 11/17/16
f 11/17/16 77/40/36 16/24/22
f 76/39/35 15/19/18 20/26/24
f 16/24/22 77/40/36 21/32/29
f 76/39/35 20/26/24 25/28/26
f 21/32/29 77/40/36 98/33/30
f 76/39/35 25/28/26 102/36/33
f 33/42/38 32/43/39 26/44/40
f 28/45/41 30/46/42 31/47/43
f 30/46/42 32/43/39 33/42/38
f 34/48/44 35/49/45 29/50/46
f 26/44/40 113/51/47 114/52/48
f 27/53/49 115/54/50 116/55/51
f 30/46/42 117/56/52 118/57/53
f 31/47/43 33/42/38 119/58/54
f 28/45/41 116/55/51 117/56/52
f 27/53/49 31/47/43 120/59/55
f 34/48/44 114/52/48 121/60/56
f 32/43/39 118/57/53 113/51/47
f 35/49/45 121/60/56 122/61/57
f 29/50/46 122/61/57 119/58/54
f 43/62/58 42/63/59 36/64/60
f 38/65/61 40/66/62 41/67/63
f 40/66/62 42/63/59 43/62/58
f 44/68/64 45/69/65 39/70/66
f 53/71/67 49/72/68 46/73/69
f 51/74/70 50/75/71 48/76/72
f 53/71/67 52/77/73 50/75/71
f 49/72/68 55/78/74 54/79/75
f 57/80/76 56/81/77 46/73/69
f 59/82/78 58/83/79 47/84/80
f 61/85/81 60/86/82 50/75/71
f 62/87/83 53/71/67 51/74/70
f 60/86/82 59/82/78 48/76/72
f 63/88/84 51/74/70 47/84/80
f 64/89/85 57/80/76 54/79/75
f 56/81/77 61/85/81 52/77/73
f 65/90/86 64/89/85 55/78/74
f 65/90/86 49/72/68 53/71/67
f 44/68/64 36/64/60 56/91/77
f 37/92/87 58/83/79 59/93/78
f 42/63/59 40/66/62 60/94/82
f 41/67/63 43/62/58 62/87/83
f 38/65/61 59/93/78 60/94/82
f 37/92/87 41/67/63 63/88/84
f 44/68/64 57/95/76 64/89/85
f 36/64/60 42/63/59 61/96/81
f 45/69/65 64/89/85 65/90/86
f 39/70/66 65/90/86 62/87/83
f 72/97/88 71/98/89 66/1/1
f 70/4/4 75/99/90 74/100/91
f 69/5/5 74/100/91 73/101/92
f 73/101/92 72/97/88 67/9/9
f 80/102/93 79/103/94 72/97/88
f 79/103/94 78/104/95 71/98/89
f 75/99/90 82/105/96 81/106/97
f 74/100/91 81/106/97 80/107/93
f 80/102/93 85/108/98 84/109/99
f 79/103/94 84/109/99 83/110/100
f 87/111/101 86/112/102 81/106/97
f 86/112/102 85/113/98 80/107/93
f 86/112/102 91/114/103 90/115/104
f 85/108/98 90/116/104 89/117/105
f 84/109/99 89/117/105 88/118/106
f 92/119/107 91/114/103 86/112/102
f 97/120/108 96/121/109 91/114/103
f 91/114/103 96/121/109 95/122/110
f 90/116/104 95/123/110 94/124/111
f 89/117/105 94/124/111 93/125/112
f 99/34/31 98/33/30 93/125/112
f 102/36/33 101/35/32 96/121/109
f 101/35/32 100/37/34 95/122/110
f 100/38/34 99/34/31 94/124/111
f 76/39/35 75/99/90 70/4/4
f 66/1/1 71/98/89 77/40/36
f 76/39/35 82/105/96 75/99/90
f 71/98/89 78/104/95 77/40/36
f 76/39/35 87/111/101 82/105/96
f 78/104/95 83/110/100 77/40/36
f 83/110/100 88/118/106 77/40/36
f 76/39/35 92/119/107 87/111/101
f 88/118/106 93/125/112 77/40/36
f 76/39/35 97/120/108 92/119/107
f 93/125/112 98/33/30 77/40/36
f 76/39/35 102/36/33 97/120/108
f 110/126/113 106/127/114 103/128/115
f 108/129/116 107/130/117 105/131/118
f 110/126/113 109/132/119 107/130/117
f 106/127/114 112/133/120 111/134/121
f 114/135/48 113/136/47 103/128/115
f 116/137/51 115/54/50 104/138/122
f 118/139/53 117/140/52 107/130/117
f 108/129/116 120/59/55 119/58/54
f 117/140/52 116/137/51 105/131/118
f 104/138/122 115/54/50 120/59/55
f 121/60/56 114/135/48 111/134/121
f 113/136/47 118/139/53 109/132/119
f 122/61/57 121/60/56 112/133/120
f 119/58/54 122/61/57 106/127/114
f 130/141/123 126/142/124 123/143/125
f 128/144/126 127/145/127 125/146/128
f 130/141/123 129/147/129 127/145/127
f 126/142/124 132/148/130 131/149/131
f 140/150/132 139/151/133 133/152/134
f 135/153/135 137/154/136 138/155/137
f 137/154/136 139/151/133 140/150/132
f 141/156/138 142/157/139 136/158/140
f 144/159/141 141/156/138 133/152/134
f 146/160/142 135/153/135 134/161/143
f 148/162/144 139/151/133 137/154/136
f 138/155/137 140/150/132 149/163/145
f 147/164/146 137/154/136 135/153/135
f 134/161/143 138/155/137 150/165/147
f 151/166/148 142/157/139 141/156/138
f 143/167/149 133/152/134 139/151/133
f 152/168/150 136/158/140 142/157/139
f 140/150/132 136/158/140 152/168/150
f 131/149/131 144/169/141 143/170/149
f 146/171/142 145/172/151 124/173/152
f 129/147/129 148/174/144 147/175/146
f 128/144/126 150/165/147 149/163/145
f 147/175/146 146/171/142 125/146/128
f 124/173/152 145/172/151 150/165/147
f 151/166/148 144/169/141 131/149/131
f 123/143/125 143/170/149 148/174/144
f 152/168/150 151/166/148 132/148/130
f 149/163/145 152/168/150 126/142/124
f 67/9/9 66/1/1 2/3/3
f 5/13/13 70/4/4 4/6/6
f 4/6/6 69/5/5 3/8/8
f 68/7/7 67/9/9 3/8/8
f 3/8/8 2/3/3 8/11/11
f 2/3/3 1/2/2 7/10/10
f 10/41/37 5/13/13 9/14/14
f 9/14/14 4/6/6 8/15/11
f 13/22/19 8/11/11 12/16/15
f 12/16/15 7/10/10 11/17/16
f 10/41/37 9/14/14 15/19/18
f 9/14/14 8/15/11 14/18/17
f 19/25/23 14/18/17 18/21/20
f 18/30/20 13/22/19 17/23/21
f 17/23/21 12/16/15 16/24/22
f 15/19/18 14/18/17 20/26/24
f 20/26/24 19/25/23 25/28/26
f 24/27/25 19/25/23 23/29/27
f 23/176/27 18/30/20 22/31/28
f 22/31/28 17/23/21 21/32/29
f 22/31/28 21/32/29 99/34/31
f 25/28/26 24/27/25 102/36/33
f 24/27/25 23/29/27 101/35/32
f 23/176/27 22/31/28 100/38/34
f 29/50/46 33/42/38 26/44/40
f 27/53/49 28/45/41 31/47/43
f 31/47/43 30/46/42 33/42/38
f 26/44/40 34/48/44 29/50/46
f 34/48/44 26/44/40 114/52/48
f 28/45/41 27/53/49 116/55/51
f 32/43/39 30/46/42 118/57/53
f 120/59/55 31/47/43 119/58/54
f 30/46/42 28/45/41 117/56/52
f 115/54/50 27/53/49 120/59/55
f 35/49/45 34/48/44 121/60/56
f 26/44/40 32/43/39 113/51/47
f 29/50/46 35/49/45 122/61/57
f 33/42/38 29/50/46 119/58/54
f 39/70/66 43/62/58 36/64/60
f 37/92/87 38/65/61 41/67/63
f 41/67/63 40/66/62 43/62/58
f 36/64/60 44/68/64 39/70/66
f 52/77/73 53/71/67 46/73/69
f 47/84/80 51/74/70 48/76/72
f 51/74/70 53/71/67 50/75/71
f 46/73/69 49/72/68 54/79/75
f 54/79/75 57/80/76 46/73/69
f 48/76/72 59/82/78 47/84/80
f 52/77/73 61/85/81 50/75/71
f 63/88/84 62/87/83 51/74/70
f 50/75/71 60/86/82 48/76/72
f 58/83/79 63/88/84 47/84/80
f 55/78/74 64/89/85 54/79/75
f 46/73/69 56/81/77 52/77/73
f 49/72/68 65/90/86 55/78/74
f 62/87/83 65/90/86 53/71/67
f 57/95/76 44/68/64 56/91/77
f 38/65/61 37/92/87 59/93/78
f 61/96/81 42/63/59 60/94/82
f 63/88/84 41/67/63 62/87/83
f 40/66/62 38/65/61 60/94/82
f 58/83/79 37/92/87 63/88/84
f 45/69/65 44/68/64 64/89/85
f 56/91/77 36/64/60 61/96/81
f 39/70/66 45/69/65 65/90/86
f 43/62/58 39/70/66 62/87/83
f 67/9/9 72/97/88 66/1/1
f 69/5/5 70/4/4 74/100/91
f 68/7/7 69/5/5 73/101/92
f 68/7/7 73/101/92 67/9/9
f 73/101/92 80/102/93 72/97/88
f 72/97/88 79/103/94 71/98/89
f 74/100/91 75/99/90 81/106/97
f 73/101/92 74/100/91 80/107/93
f 79/103/94 80/102/93 84/109/99
f 78/104/95 79/103/94 83/110/100
f 82/105/96 87/111/101 81/106/97
f 81/106/97 86/112/102 80/107/93
f 85/113/98 86/112/102 90/115/104
f 84/109/99 85/108/98 89/117/105
f 83/110/100 84/109/99 88/118/106
f 87/111/101 92/119/107 86/112/102
f 92/119/107 97/120/108 91/114/103
f 90/115/104 91/114/103 95/122/110
f 89/117/105 90/116/104 94/124/111
f 88/118/106 89/117/105 93/125/112
f 94/124/111 99/34/31 93/125/112
f 97/120/108 102/36/33 96/121/109
f 96/121/109 101/35/32 95/122/110
f 95/123/110 100/38/34 94/124/111
f 109/132/119 110/126/113 103/128/115
f 104/138/122 108/129/116 105/131/118
f 108/129/116 110/126/113 107/130/117
f 103/128/115 106/127/114 111/134/121
f 111/134/121 114/135/48 103/128/115
f 105/131/118 116/137/51 104/138/122
f 109/132/119 118/139/53 107/130/117
f 110/126/113 108/129/116 119/58/54
f 107/130/117 117/140/52 105/131/118
f 108/129/116 104/138/122 120/59/55
f 112/133/120 121/60/56 111/134/121
f 103/128/115 113/136/47 109/132/119
f 106/127/114 122/61/57 112/133/120
f 110/126/113 119/58/54 106/127/114
f 129/147/129 130/141/123 123/143/125
f 124/173/152 128/144/126 125/146/128
f 128/144/126 130/141/123 127/145/127
f 123/143/125 126/142/124 131/149/131
f 136/158/140 140/150/132 133/152/134
f 134/161/143 135/153/135 138/155/137
f 138/155/137 137/154/136 140/150/132
f 133/152/134 141/156/138 136/158/140
f 143/167/149 144/159/141 133/152/134
f 145/172/151 146/160/142 134/161/143
f 147/164/146 148/162/144 137/154/136
f 150/165/147 138/155/137 149/163/145
f 146/160/142 147/164/146 135/153/135
f 145/172/151 134/161/143 150/165/147
f 144/159/141 151/166/148 141/156/138
f 148/162/144 143/167/149 139/151/133
f 151/166/148 152/168/150 142/157/139
f 149/163/145 140/150/132 152/168/150
f 123/143/125 131/149/131 143/170/149
f 125/146/128 146/171/142 124/173/152
f 127/145/127 129/147/129 147/175/146
f 130/141/123 128/144/126 149/163/145
f 127/145/127 147/175/146 125/146/128
f 128/144/126 124/173/152 150/165/147
f 132/148/130 151/166/148 131/149/131
f 129/147/129 123/143/125 148/174/144
f 126/142/124 152/168/150 132/148/130
f 130/141/123 149/163/145 126/142/124
