# Blender v2.76 (sub 0) OBJ File: 'untitled.blend'
# www.blender.org
mtllib heart.mtl
o Sphere
v 0.035350 0.134491 -0.028304
v 0.086346 0.156370 -0.052300
v 0.138791 0.146467 -0.068333
v 0.193192 0.068977 -0.073963
v 0.174715 -0.015648 -0.068333
v 0.128460 -0.078215 -0.063047
v 0.061080 -0.156683 -0.054407
v 0.043067 0.134491 -0.000000
v 0.100605 0.156370 0.000000
v 0.157421 0.146467 0.000000
v 0.213357 0.068977 0.000000
v 0.193345 -0.015648 0.000000
v 0.148895 -0.078215 -0.000000
v 0.082339 -0.156683 -0.000000
v 0.035350 0.134491 0.028304
v 0.086346 0.156370 0.052300
v 0.138791 0.146467 0.068333
v 0.193192 0.068977 0.073963
v 0.174715 -0.015648 0.068333
v 0.128460 -0.078215 0.063047
v 0.061080 -0.156683 0.054407
v 0.030540 -0.156683 -0.072004
v 0.064230 -0.081673 -0.123027
v 0.087358 -0.031901 -0.127479
v 0.096596 0.034489 -0.137984
v 0.069396 0.097311 -0.127479
v 0.043173 0.122674 -0.097562
v 0.017675 0.125373 -0.052789
v 0.043173 0.122674 0.097610
v 0.017675 0.125373 0.052837
v 0.030540 -0.156683 0.072047
v 0.064230 -0.081673 0.121945
v 0.087358 -0.031901 0.127527
v 0.096596 0.034489 0.138032
v 0.069396 0.097311 0.127527
v -0.000000 0.125834 0.000000
v -0.000000 0.116255 -0.045798
v -0.000000 0.088978 -0.084623
v -0.000000 0.048154 -0.110565
v -0.000000 -0.000000 -0.119675
v -0.000000 -0.048154 -0.110565
v -0.000000 -0.085131 -0.109605
v -0.000000 -0.156683 -0.071757
v -0.035350 0.134491 -0.028304
v -0.086346 0.156370 -0.052300
v -0.138791 0.146467 -0.068333
v -0.193192 0.068977 -0.073963
v -0.174715 -0.015648 -0.068333
v -0.128460 -0.078215 -0.063047
v -0.061080 -0.156683 -0.054407
v -0.043067 0.134491 -0.000000
v -0.100605 0.156370 0.000000
v -0.157421 0.146467 0.000000
v -0.213357 0.068977 0.000000
v -0.193345 -0.015648 0.000000
v -0.148895 -0.078215 -0.000000
v -0.082339 -0.156683 -0.000000
v -0.035350 0.134491 0.028304
v -0.086346 0.156370 0.052300
v -0.138791 0.146467 0.068333
v -0.193192 0.068977 0.073963
v -0.174715 -0.015648 0.068333
v -0.128460 -0.078215 0.063047
v -0.061080 -0.156683 0.054407
v -0.000000 0.116255 0.045798
v -0.000000 0.088978 0.084623
v -0.000000 0.048154 0.110565
v -0.000000 -0.000000 0.119675
v -0.000000 -0.048154 0.110565
v -0.000000 -0.085131 0.108020
v -0.000000 -0.156683 0.071761
v -0.000000 -0.213890 -0.000000
v -0.030540 -0.156683 -0.072004
v -0.064230 -0.081673 -0.123027
v -0.087358 -0.031901 -0.127479
v -0.096596 0.034489 -0.137984
v -0.069396 0.097311 -0.127479
v -0.043173 0.122674 -0.097562
v -0.017675 0.125373 -0.052789
v -0.043173 0.122674 0.097610
v -0.017675 0.125373 0.052837
v -0.030540 -0.156683 0.072047
v -0.064230 -0.081673 0.121945
v -0.087358 -0.031901 0.127527
v -0.096596 0.034489 0.138032
v -0.069396 0.097311 0.127527
vt 0.547680 0.723118
vt 0.605095 0.585344
vt 0.753400 0.612590
vt 0.611325 0.745402
vt 0.646631 0.513233
vt 0.664068 0.418886
vt 0.842224 0.372385
vt 0.825414 0.499767
vt 0.629163 0.329809
vt 0.590730 0.271675
vt 0.681026 0.202731
vt 0.761509 0.257067
vt 0.534252 0.204248
vt 0.571232 0.154726
vt 0.736506 0.117214
vt 0.863151 0.183079
vt 0.953549 0.524160
vt 0.868163 0.669879
vt 0.968226 0.351248
vt 0.589431 0.100128
vt 0.697497 0.819039
vt 0.107655 0.669979
vt 0.022212 0.524351
vt 0.150285 0.499914
vt 0.222333 0.612678
vt 0.007490 0.351496
vt 0.112514 0.183341
vt 0.214143 0.257311
vt 0.133458 0.372603
vt 0.239141 0.117472
vt 0.386215 0.100380
vt 0.404413 0.154981
vt 0.294617 0.202984
vt 0.278287 0.818890
vt 0.364363 0.745254
vt 0.384889 0.271993
vt 0.441379 0.204592
vt 0.487810 0.199047
vt 0.487810 0.295340
vt 0.427946 0.722904
vt 0.370002 0.585843
vt 0.487810 0.595972
vt 0.487810 0.729518
vt 0.328821 0.513327
vt 0.311512 0.419093
vt 0.487810 0.460167
vt 0.487810 0.536776
vt 0.346446 0.330093
vt 0.487810 0.380138
vt 0.487847 0.198783
vt 0.487847 0.104858
vt 0.487847 0.900029
vt 0.487847 0.729687
vt 0.487810 0.899777
vt 0.487810 0.105110
vt 0.487847 0.295054
vt 0.487847 0.459741
vt 0.487847 0.379797
vt 0.487847 0.594983
vt 0.487847 0.536014
vt 0.428014 0.723118
vt 0.364368 0.745403
vt 0.222293 0.612590
vt 0.370598 0.585345
vt 0.329062 0.513233
vt 0.150280 0.499768
vt 0.133469 0.372385
vt 0.311626 0.418886
vt 0.346530 0.329809
vt 0.214184 0.257067
vt 0.294668 0.202731
vt 0.384964 0.271675
vt 0.404461 0.154726
vt 0.441442 0.204248
vt 0.112542 0.183079
vt 0.239188 0.117214
vt 0.107530 0.669879
vt 0.022144 0.524160
vt 0.007467 0.351248
vt 0.386262 0.100128
vt 0.278197 0.819039
vt 0.867964 0.669979
vt 0.753286 0.612678
vt 0.825334 0.499914
vt 0.953408 0.524351
vt 0.968129 0.351496
vt 0.842161 0.372603
vt 0.761476 0.257311
vt 0.863105 0.183341
vt 0.736478 0.117472
vt 0.681002 0.202984
vt 0.571205 0.154981
vt 0.589404 0.100380
vt 0.697332 0.818890
vt 0.611257 0.745254
vt 0.590730 0.271993
vt 0.534240 0.204592
vt 0.547673 0.722904
vt 0.605617 0.585843
vt 0.646798 0.513327
vt 0.664107 0.419093
vt 0.629173 0.330093
vn 0.176900 -0.684000 -0.707600
vn 0.196900 -0.376100 -0.905400
vn 0.682300 -0.563000 -0.466300
vn 0.522300 -0.718500 -0.459200
vn 0.272300 -0.251900 -0.928600
vn 0.229600 0.031900 -0.972700
vn 0.810300 0.172900 -0.559900
vn 0.778000 -0.363800 -0.512100
vn -0.045300 0.456500 -0.888500
vn -0.370200 0.730800 -0.573500
vn -0.123800 0.963600 -0.236900
vn 0.421600 0.769200 -0.480100
vn -0.487600 0.830100 -0.270500
vn -0.353800 0.933600 -0.057000
vn -0.050500 0.998700 0.000000
vn 0.573100 0.819400 0.000000
vn 0.913000 -0.407800 0.000000
vn 0.783000 -0.622100 0.000000
vn 0.983100 0.183100 0.000000
vn -0.290000 0.957000 0.000000
vn 0.682500 -0.730800 0.000000
vn 0.777600 -0.364700 0.512200
vn 0.680800 -0.563800 0.467500
vn 0.421700 0.769200 0.480000
vn 0.810400 0.172900 0.559800
vn -0.353700 0.933600 0.056900
vn -0.123700 0.963600 0.236800
vn 0.521700 -0.717500 0.461400
vn -0.370300 0.730700 0.573500
vn -0.487800 0.829900 0.270500
vn 0.000000 0.946300 0.323200
vn 0.000000 0.653200 0.757100
vn 0.174000 -0.679600 0.712600
vn 0.194900 -0.383900 0.902500
vn 0.000000 -0.287800 0.957700
vn 0.000000 -0.668100 0.744000
vn 0.270000 -0.257900 0.927600
vn 0.229600 0.031900 0.972700
vn 0.000000 -0.053100 0.998600
vn 0.000000 -0.091800 0.995800
vn -0.045400 0.456500 0.888500
vn 0.000000 0.243200 0.970000
vn 0.000000 0.946200 -0.323400
vn 0.000000 1.000000 -0.000000
vn 0.000000 -1.000000 -0.000100
vn 0.000000 -0.673500 -0.739200
vn 0.000000 0.653300 -0.757000
vn 0.000000 -0.053100 -0.998600
vn 0.000000 0.243300 -0.969900
vn 0.000000 -0.281000 -0.959700
vn 0.000000 -0.074400 -0.997200
vn -0.176900 -0.684000 -0.707600
vn -0.522300 -0.718500 -0.459200
vn -0.682300 -0.563000 -0.466300
vn -0.196900 -0.376100 -0.905400
vn -0.272300 -0.251900 -0.928600
vn -0.778000 -0.363800 -0.512100
vn -0.810300 0.172900 -0.559900
vn -0.229600 0.031900 -0.972700
vn 0.045300 0.456500 -0.888500
vn -0.421600 0.769200 -0.480100
vn 0.123800 0.963600 -0.236900
vn 0.370200 0.730800 -0.573500
vn 0.353800 0.933600 -0.057000
vn 0.487600 0.830100 -0.270500
vn -0.573100 0.819400 0.000000
vn 0.050500 0.998700 0.000000
vn -0.783000 -0.622100 0.000000
vn -0.913000 -0.407800 0.000000
vn -0.983100 0.183100 0.000000
vn 0.290000 0.957000 0.000000
vn -0.682500 -0.730800 0.000000
vn -0.680800 -0.563800 0.467500
vn -0.777600 -0.364700 0.512200
vn -0.810400 0.172900 0.559800
vn -0.421700 0.769200 0.480000
vn 0.123700 0.963600 0.236800
vn 0.353700 0.933600 0.056900
vn -0.521700 -0.717500 0.461400
vn 0.370300 0.730700 0.573500
vn 0.487800 0.829900 0.270500
vn -0.174000 -0.679600 0.712600
vn -0.194900 -0.383900 0.902500
vn -0.270000 -0.257900 0.927600
vn -0.229600 0.031900 0.972700
vn 0.045400 0.456500 0.888500
usemtl None
s 1
f 22/1/1 23/2/2 6/3/3 7/4/4
f 24/5/5 25/6/6 4/7/7 5/8/8
f 26/9/9 27/10/10 2/11/11 3/12/12
f 23/2/2 24/5/5 5/8/8 6/3/3
f 25/6/6 26/9/9 3/12/12 4/7/7
f 27/10/10 28/13/13 1/14/14 2/11/11
f 3/12/12 2/11/11 9/15/15 10/16/16
f 6/3/3 5/8/8 12/17/17 13/18/18
f 4/7/7 3/12/12 10/16/16 11/19/19
f 2/11/11 1/14/14 8/20/20 9/15/15
f 7/4/4 6/3/3 13/18/18 14/21/21
f 5/8/8 4/7/7 11/19/19 12/17/17
f 13/22/18 12/23/17 19/24/22 20/25/23
f 11/26/19 10/27/16 17/28/24 18/29/25
f 9/30/15 8/31/20 15/32/26 16/33/27
f 14/34/21 13/22/18 20/25/23 21/35/28
f 12/23/17 11/26/19 18/29/25 19/24/22
f 10/27/16 9/30/15 16/33/27 17/28/24
f 29/36/29 30/37/30 65/38/31 66/39/32
f 31/40/33 32/41/34 70/42/35 71/43/36
f 33/44/37 34/45/38 68/46/39 69/47/40
f 35/48/41 29/36/29 66/39/32 67/49/42
f 32/41/34 33/44/37 69/47/40 70/42/35
f 34/45/38 35/48/41 67/49/42 68/46/39
f 37/50/43 36/51/44 1/14/14 28/13/13
f 72/52/45 43/53/46 22/1/1 7/4/4
f 1/14/14 36/51/44 8/20/20
f 72/52/45 7/4/4 14/21/21
f 72/54/45 14/34/21 21/35/28
f 8/31/20 36/55/44 15/32/26
f 15/32/26 36/55/44 65/38/31 30/37/30
f 72/54/45 21/35/28 31/40/33 71/43/36
f 38/56/47 37/50/43 28/13/13 27/10/10
f 40/57/48 39/58/49 26/9/9 25/6/6
f 42/59/50 41/60/51 24/5/5 23/2/2
f 39/58/49 38/56/47 27/10/10 26/9/9
f 41/60/51 40/57/48 25/6/6 24/5/5
f 43/53/46 42/59/50 23/2/2 22/1/1
f 18/29/25 17/28/24 35/48/41 34/45/38
f 20/25/23 19/24/22 33/44/37 32/41/34
f 17/28/24 16/33/27 29/36/29 35/48/41
f 19/24/22 18/29/25 34/45/38 33/44/37
f 21/35/28 20/25/23 32/41/34 31/40/33
f 16/33/27 15/32/26 30/37/30 29/36/29
f 73/61/52 50/62/53 49/63/54 74/64/55
f 75/65/56 48/66/57 47/67/58 76/68/59
f 77/69/60 46/70/61 45/71/62 78/72/63
f 74/64/55 49/63/54 48/66/57 75/65/56
f 76/68/59 47/67/58 46/70/61 77/69/60
f 78/72/63 45/71/62 44/73/64 79/74/65
f 46/70/61 53/75/66 52/76/67 45/71/62
f 49/63/54 56/77/68 55/78/69 48/66/57
f 47/67/58 54/79/70 53/75/66 46/70/61
f 45/71/62 52/76/67 51/80/71 44/73/64
f 50/62/53 57/81/72 56/77/68 49/63/54
f 48/66/57 55/78/69 54/79/70 47/67/58
f 56/82/68 63/83/73 62/84/74 55/85/69
f 54/86/70 61/87/75 60/88/76 53/89/66
f 52/90/67 59/91/77 58/92/78 51/93/71
f 57/94/72 64/95/79 63/83/73 56/82/68
f 55/85/69 62/84/74 61/87/75 54/86/70
f 53/89/66 60/88/76 59/91/77 52/90/67
f 80/96/80 66/39/32 65/38/31 81/97/81
f 82/98/82 71/43/36 70/42/35 83/99/83
f 84/100/84 69/47/40 68/46/39 85/101/85
f 86/102/86 67/49/42 66/39/32 80/96/80
f 83/99/83 70/42/35 69/47/40 84/100/84
f 85/101/85 68/46/39 67/49/42 86/102/86
f 37/50/43 79/74/65 44/73/64 36/51/44
f 72/52/45 50/62/53 73/61/52 43/53/46
f 44/73/64 51/80/71 36/51/44
f 72/52/45 57/81/72 50/62/53
f 72/54/45 64/95/79 57/94/72
f 51/93/71 58/92/78 36/55/44
f 58/92/78 81/97/81 65/38/31 36/55/44
f 72/54/45 71/43/36 82/98/82 64/95/79
f 38/56/47 78/72/63 79/74/65 37/50/43
f 40/57/48 76/68/59 77/69/60 39/58/49
f 42/59/50 74/64/55 75/65/56 41/60/51
f 39/58/49 77/69/60 78/72/63 38/56/47
f 41/60/51 75/65/56 76/68/59 40/57/48
f 43/53/46 73/61/52 74/64/55 42/59/50
f 61/87/75 85/101/85 86/102/86 60/88/76
f 63/83/73 83/99/83 84/100/84 62/84/74
f 60/88/76 86/102/86 80/96/80 59/91/77
f 62/84/74 84/100/84 85/101/85 61/87/75
f 64/95/79 82/98/82 83/99/83 63/83/73
f 59/91/77 80/96/80 81/97/81 58/92/78
