# Blender v2.77 (sub 0) OBJ File: ''
# www.blender.org
mtllib levelGate.mtl
o Cube_Cube.001
v -0.453486 -0.014142 -0.366184
v -0.453486 0.081959 -0.361350
v -0.453486 -0.014142 -0.482646
v -0.453486 0.094591 -0.477124
v -0.337024 -0.014142 -0.366184
v -0.337024 0.081959 -0.361350
v -0.337024 -0.014142 -0.482646
v -0.337024 0.094591 -0.477124
v -0.407477 0.219275 -0.366785
v -0.407477 0.232283 -0.431891
v -0.348741 0.188922 -0.372849
v -0.348741 0.201930 -0.437955
v -0.346497 0.299909 -0.361003
v -0.346497 0.313059 -0.389178
v -0.318991 0.286774 -0.367134
v -0.318991 0.299923 -0.395309
v 0.453486 -0.014142 -0.366184
v 0.453486 0.081959 -0.361350
v 0.453486 -0.014142 -0.482646
v 0.453486 0.094591 -0.477124
v 0.337024 -0.014142 -0.366184
v 0.337024 0.081959 -0.361350
v 0.337024 -0.014142 -0.482646
v 0.337024 0.094591 -0.477124
v 0.407477 0.219275 -0.366785
v 0.407477 0.232283 -0.431891
v 0.348741 0.188922 -0.372849
v 0.348741 0.201930 -0.437955
v 0.346497 0.299909 -0.361003
v 0.346497 0.313059 -0.389178
v 0.318991 0.286774 -0.367134
v 0.318991 0.299923 -0.395309
v -0.453486 -0.014142 0.366184
v -0.453486 0.081959 0.361350
v -0.453486 -0.014142 0.482646
v -0.453486 0.094591 0.477124
v -0.337024 -0.014142 0.366184
v -0.337024 0.081959 0.361350
v -0.337024 -0.014142 0.482646
v -0.337024 0.094591 0.477124
v -0.407477 0.219275 0.366785
v -0.407477 0.232283 0.431891
v -0.348741 0.188922 0.372849
v -0.348741 0.201930 0.437955
v -0.346497 0.299909 0.361003
v -0.346497 0.313059 0.389178
v -0.318991 0.286774 0.367134
v -0.318991 0.299923 0.395309
v 0.453486 -0.014142 0.366184
v 0.453486 0.081959 0.361350
v 0.453486 -0.014142 0.482646
v 0.453486 0.094591 0.477124
v 0.337024 -0.014142 0.366184
v 0.337024 0.081959 0.361350
v 0.337024 -0.014142 0.482646
v 0.337024 0.094591 0.477124
v 0.407477 0.219275 0.366785
v 0.407477 0.232283 0.431891
v 0.348741 0.188922 0.372849
v 0.348741 0.201930 0.437955
v 0.346497 0.299909 0.361003
v 0.346497 0.313059 0.389178
v 0.318991 0.286774 0.367134
v 0.318991 0.299923 0.395309
vt 0.5006 0.2181
vt 0.2575 0.2375
vt 0.2574 0.0000
vt 0.5006 0.0081
vt 0.0000 0.5486
vt 0.2435 0.5338
vt 0.2574 0.7771
vt 0.0139 0.7919
vt 0.7565 0.4806
vt 1.0000 0.4965
vt 1.0000 0.7165
vt 0.7564 0.7297
vt 0.7439 0.2363
vt 0.5006 0.2200
vt 0.5131 0.0000
vt 0.7564 0.0163
vt 0.5006 1.0000
vt 0.5006 0.7332
vt 0.7446 0.7332
vt 0.7446 1.0000
vt 0.0799 0.2117
vt 0.2064 0.2749
vt 0.5800 0.5399
vt 0.7071 0.4784
vt 0.7564 0.7066
vt 0.6967 0.7332
vt 0.8267 0.2325
vt 0.9643 0.2549
vt 0.4803 0.5493
vt 0.3430 0.5731
vt 0.0000 0.8631
vt 0.0000 0.7919
vt 0.0651 0.7919
vt 0.0651 0.8631
vt 0.1984 0.0000
vt 0.2574 0.0292
vt 0.9067 0.0000
vt 0.9670 0.0269
vt 0.4913 0.7681
vt 0.4310 0.7948
vt 0.5006 0.2181
vt 0.5006 0.0081
vt 0.2574 0.0000
vt 0.2575 0.2375
vt 0.0000 0.5486
vt 0.0139 0.7919
vt 0.2574 0.7771
vt 0.2435 0.5338
vt 0.7565 0.4806
vt 0.7564 0.7297
vt 1.0000 0.7165
vt 1.0000 0.4965
vt 0.7439 0.2363
vt 0.7564 0.0163
vt 0.5131 0.0000
vt 0.5006 0.2200
vt 0.5006 1.0000
vt 0.7446 1.0000
vt 0.7446 0.7332
vt 0.5006 0.7332
vt 0.2064 0.2749
vt 0.0799 0.2117
vt 0.5800 0.5399
vt 0.6967 0.7332
vt 0.7564 0.7066
vt 0.7071 0.4784
vt 0.9643 0.2549
vt 0.8267 0.2325
vt 0.3430 0.5731
vt 0.4803 0.5493
vt 0.0000 0.8631
vt 0.0651 0.8631
vt 0.0651 0.7919
vt 0.0000 0.7919
vt 0.2574 0.0292
vt 0.1984 0.0000
vt 0.9670 0.0269
vt 0.9067 0.0000
vt 0.4310 0.7948
vt 0.4913 0.7681
vt 0.5006 0.2181
vt 0.5006 0.0081
vt 0.2574 0.0000
vt 0.2575 0.2375
vt 0.0000 0.5486
vt 0.0139 0.7919
vt 0.2574 0.7771
vt 0.2435 0.5338
vt 0.7565 0.4806
vt 0.7564 0.7297
vt 1.0000 0.7165
vt 1.0000 0.4965
vt 0.7439 0.2363
vt 0.7564 0.0163
vt 0.5131 0.0000
vt 0.5006 0.2200
vt 0.5006 1.0000
vt 0.7446 1.0000
vt 0.7446 0.7332
vt 0.5006 0.7332
vt 0.2064 0.2749
vt 0.0799 0.2117
vt 0.5800 0.5399
vt 0.6967 0.7332
vt 0.7564 0.7066
vt 0.7071 0.4784
vt 0.9643 0.2549
vt 0.8267 0.2325
vt 0.3430 0.5731
vt 0.4803 0.5493
vt 0.0000 0.8631
vt 0.0651 0.8631
vt 0.0651 0.7919
vt 0.0000 0.7919
vt 0.2574 0.0292
vt 0.1984 0.0000
vt 0.9670 0.0269
vt 0.9067 0.0000
vt 0.4310 0.7948
vt 0.4913 0.7681
vt 0.5006 0.2181
vt 0.2575 0.2375
vt 0.2574 0.0000
vt 0.5006 0.0081
vt 0.0000 0.5486
vt 0.2435 0.5338
vt 0.2574 0.7771
vt 0.0139 0.7919
vt 0.7565 0.4806
vt 1.0000 0.4965
vt 1.0000 0.7165
vt 0.7564 0.7297
vt 0.7439 0.2363
vt 0.5006 0.2200
vt 0.5131 0.0000
vt 0.7564 0.0163
vt 0.5006 1.0000
vt 0.5006 0.7332
vt 0.7446 0.7332
vt 0.7446 1.0000
vt 0.0799 0.2117
vt 0.2064 0.2749
vt 0.5800 0.5399
vt 0.7071 0.4784
vt 0.7564 0.7066
vt 0.6967 0.7332
vt 0.8267 0.2325
vt 0.9643 0.2549
vt 0.4803 0.5493
vt 0.3430 0.5731
vt 0.0000 0.8631
vt 0.0000 0.7919
vt 0.0651 0.7919
vt 0.0651 0.8631
vt 0.1984 0.0000
vt 0.2574 0.0292
vt 0.9067 0.0000
vt 0.9670 0.0269
vt 0.4913 0.7681
vt 0.4310 0.7948
vn -1.0000 0.0000 0.0000
vn 0.0000 0.0507 -0.9987
vn 1.0000 0.0000 0.0000
vn 0.0000 -0.0502 0.9987
vn 0.0000 -1.0000 0.0000
vn 0.0232 0.3227 -0.9462
vn 0.0859 -0.1075 0.9905
vn 0.9942 0.1068 0.0151
vn -0.9493 0.3113 0.0441
vn 0.0454 0.0627 0.9970
vn 0.4662 0.8017 0.3741
vn 0.0723 0.3996 -0.9138
vn 0.9591 -0.2725 -0.0764
vn -0.8101 0.5645 0.1583
vn -0.0232 0.3227 -0.9462
vn -0.0859 -0.1075 0.9905
vn -0.9942 0.1068 0.0151
vn 0.9493 0.3113 0.0441
vn -0.0454 0.0627 0.9970
vn -0.4662 0.8017 0.3741
vn -0.0723 0.3996 -0.9138
vn -0.9591 -0.2725 -0.0764
vn 0.8101 0.5645 0.1583
vn 0.0000 0.0507 0.9987
vn 0.0000 -0.0502 -0.9987
vn 0.0232 0.3227 0.9462
vn 0.0859 -0.1075 -0.9905
vn 0.9942 0.1068 -0.0151
vn -0.9493 0.3113 -0.0441
vn 0.0454 0.0627 -0.9970
vn 0.4662 0.8017 -0.3741
vn 0.0723 0.3996 0.9138
vn 0.9591 -0.2725 0.0764
vn -0.8101 0.5645 -0.1583
vn -0.0232 0.3227 0.9462
vn -0.0859 -0.1075 -0.9905
vn -0.9942 0.1068 -0.0151
vn 0.9493 0.3113 -0.0441
vn -0.0454 0.0627 -0.9970
vn -0.4662 0.8017 -0.3741
vn -0.0723 0.3996 0.9138
vn -0.9591 -0.2725 0.0764
vn 0.8101 0.5645 -0.1583
usemtl None
s off
f 2/1/1 4/2/1 3/3/1 1/4/1
f 4/5/2 8/6/2 7/7/2 3/8/2
f 8/9/3 6/10/3 5/11/3 7/12/3
f 6/13/4 2/14/4 1/15/4 5/16/4
f 1/17/5 3/18/5 7/19/5 5/20/5
f 8/6/6 4/5/6 10/21/6 12/22/6
f 9/23/7 11/24/7 15/25/7 13/26/7
f 6/10/8 8/9/8 12/27/8 11/28/8
f 4/2/9 2/1/9 9/29/9 10/30/9
f 2/14/10 6/13/10 11/24/10 9/23/10
f 15/31/11 16/32/11 14/33/11 13/34/11
f 12/22/12 10/21/12 14/35/12 16/36/12
f 11/28/13 12/27/13 16/37/13 15/38/13
f 10/30/14 9/29/14 13/39/14 14/40/14
f 18/41/3 17/42/3 19/43/3 20/44/3
f 20/45/2 19/46/2 23/47/2 24/48/2
f 24/49/1 23/50/1 21/51/1 22/52/1
f 22/53/4 21/54/4 17/55/4 18/56/4
f 17/57/5 21/58/5 23/59/5 19/60/5
f 24/48/15 28/61/15 26/62/15 20/45/15
f 25/63/16 29/64/16 31/65/16 27/66/16
f 22/52/17 27/67/17 28/68/17 24/49/17
f 20/44/18 26/69/18 25/70/18 18/41/18
f 18/56/19 25/63/19 27/66/19 22/53/19
f 31/71/20 29/72/20 30/73/20 32/74/20
f 28/61/21 32/75/21 30/76/21 26/62/21
f 27/67/22 31/77/22 32/78/22 28/68/22
f 26/69/23 30/79/23 29/80/23 25/70/23
f 34/81/1 33/82/1 35/83/1 36/84/1
f 36/85/24 35/86/24 39/87/24 40/88/24
f 40/89/3 39/90/3 37/91/3 38/92/3
f 38/93/25 37/94/25 33/95/25 34/96/25
f 33/97/5 37/98/5 39/99/5 35/100/5
f 40/88/26 44/101/26 42/102/26 36/85/26
f 41/103/27 45/104/27 47/105/27 43/106/27
f 38/92/28 43/107/28 44/108/28 40/89/28
f 36/84/29 42/109/29 41/110/29 34/81/29
f 34/96/30 41/103/30 43/106/30 38/93/30
f 47/111/31 45/112/31 46/113/31 48/114/31
f 44/101/32 48/115/32 46/116/32 42/102/32
f 43/107/33 47/117/33 48/118/33 44/108/33
f 42/109/34 46/119/34 45/120/34 41/110/34
f 50/121/3 52/122/3 51/123/3 49/124/3
f 52/125/24 56/126/24 55/127/24 51/128/24
f 56/129/1 54/130/1 53/131/1 55/132/1
f 54/133/25 50/134/25 49/135/25 53/136/25
f 49/137/5 51/138/5 55/139/5 53/140/5
f 56/126/35 52/125/35 58/141/35 60/142/35
f 57/143/36 59/144/36 63/145/36 61/146/36
f 54/130/37 56/129/37 60/147/37 59/148/37
f 52/122/38 50/121/38 57/149/38 58/150/38
f 50/134/39 54/133/39 59/144/39 57/143/39
f 63/151/40 64/152/40 62/153/40 61/154/40
f 60/142/41 58/141/41 62/155/41 64/156/41
f 59/148/42 60/147/42 64/157/42 63/158/42
f 58/150/43 57/149/43 61/159/43 62/160/43
