# 3ds Max Wavefront OBJ Exporter v0.97b - (c)2007 guruware
# File Created: 28.12.2016 23:02:00

mtllib porte.mtl

#
# object Box001
#

v  12.7153 0.0000 -1.5000
v  12.7153 0.0000 1.5000
v  -12.7153 0.0000 1.5000
v  -12.7153 0.0000 -1.5000
v  12.7153 50.0000 1.5000
v  12.7153 50.0000 -1.5000
v  -12.7153 50.0000 -1.5000
v  -12.7153 50.0000 1.5000
v  -12.7153 35.9331 2.5100
v  -12.7153 33.7681 2.5100
v  12.7153 33.7681 2.5100
v  12.7153 35.9331 2.5100
v  15.0000 35.9331 -1.5000
v  15.0000 35.9331 1.5000
v  15.0000 33.7681 1.5000
v  15.0000 33.7681 -1.5000
v  12.7153 35.9331 -1.5000
v  12.7153 33.7681 -1.5000
v  -12.7153 33.7681 -1.5000
v  -12.7153 35.9331 -1.5000
v  -15.0000 35.9331 1.5000
v  -15.0000 35.9331 -1.5000
v  -15.0000 33.7681 -1.5000
v  -15.0000 33.7681 1.5000
v  -12.7153 50.0000 2.5100
v  -12.7153 47.9583 2.5100
v  12.7153 47.9583 2.5100
v  12.7153 50.0000 2.5100
v  12.7153 0.0000 2.5100
v  12.7153 2.0417 2.5100
v  -12.7153 2.0417 2.5100
v  -12.7153 0.0000 2.5100
v  15.0000 50.0000 -1.5000
v  15.0000 50.0000 1.5000
v  15.0000 47.9583 1.5000
v  15.0000 47.9583 -1.5000
v  15.0000 0.0000 1.5000
v  15.0000 0.0000 -1.5000
v  15.0000 2.0417 -1.5000
v  15.0000 2.0417 1.5000
v  12.7153 47.9583 -1.5000
v  -12.7153 47.9583 -1.5000
v  -12.7153 2.0417 -1.5000
v  12.7153 2.0417 -1.5000
v  -15.0000 50.0000 1.5000
v  -15.0000 50.0000 -1.5000
v  -15.0000 47.9583 -1.5000
v  -15.0000 47.9583 1.5000
v  -15.0000 0.0000 -1.5000
v  -15.0000 0.0000 1.5000
v  -15.0000 2.0417 1.5000
v  -15.0000 2.0417 -1.5000
v  -12.7153 47.9583 1.5000
v  -12.7153 35.9331 1.5000
v  12.7153 35.9331 1.5000
v  12.7153 47.9583 1.5000
v  12.7153 16.6763 2.5100
v  12.7153 19.0854 2.5100
v  -12.7153 19.0854 2.5100
v  -12.7153 16.6763 2.5100
v  15.0000 16.6763 1.5000
v  15.0000 16.6763 -1.5000
v  15.0000 19.0854 -1.5000
v  15.0000 19.0854 1.5000
v  -12.7153 16.6763 -1.5000
v  -12.7153 19.0854 -1.5000
v  12.7153 19.0854 -1.5000
v  12.7153 16.6763 -1.5000
v  -15.0000 16.6763 -1.5000
v  -15.0000 16.6763 1.5000
v  -15.0000 19.0854 1.5000
v  -15.0000 19.0854 -1.5000
v  12.7153 2.0417 1.5000
v  12.7153 16.6763 1.5000
v  -12.7153 16.6763 1.5000
v  -12.7153 2.0417 1.5000
v  -12.7153 33.7681 1.5000
v  -12.7153 19.0854 1.5000
v  12.7153 19.0854 1.5000
v  12.7153 33.7681 1.5000
v  -15.0000 35.9331 2.5100
v  -15.0000 33.7681 2.5100
v  15.0000 33.7681 2.5100
v  15.0000 35.9331 2.5100
v  -15.0000 50.0000 2.5100
v  -15.0000 47.9583 2.5100
v  15.0000 47.9583 2.5100
v  15.0000 50.0000 2.5100
v  15.0000 0.0000 2.5100
v  15.0000 2.0417 2.5100
v  -15.0000 2.0417 2.5100
v  -15.0000 0.0000 2.5100
v  15.0000 16.6763 2.5100
v  15.0000 19.0854 2.5100
v  -15.0000 19.0854 2.5100
v  -15.0000 16.6763 2.5100
# 96 vertices

vn 0.0000 -1.0000 -0.0000
vn 0.0000 1.0000 -0.0000
vn 0.0000 0.0000 1.0000
vn 1.0000 0.0000 -0.0000
vn 0.0000 0.0000 -1.0000
vn -1.0000 0.0000 -0.0000
vn -0.0000 1.0000 -0.0000
# 7 vertex normals

vt 0.0762 1.0000 0.0000
vt 0.0762 0.2519 0.0000
vt 0.9238 0.2519 0.0000
vt 0.9238 1.0000 0.0000
vt 0.9238 0.2519 1.0000
vt 0.9238 1.0000 1.0000
vt 0.0762 1.0000 1.0000
vt 0.0762 0.2519 1.0000
vt 0.0762 0.7187 0.0000
vt 0.0762 0.6754 0.0000
vt 0.9238 0.6754 0.0000
vt 0.9238 0.7187 0.0000
vt 1.0000 0.7187 1.0000
vt 0.2519 0.7187 1.0000
vt 0.2519 0.6754 1.0000
vt 1.0000 0.6754 1.0000
vt 0.0762 0.7187 1.0000
vt 0.0762 0.6754 1.0000
vt 0.9238 0.6754 1.0000
vt 0.9238 0.7187 1.0000
vt 0.7481 0.7187 0.0000
vt 0.0000 0.7187 0.0000
vt 0.0000 0.6754 0.0000
vt 0.7481 0.6754 0.0000
vt 0.0762 0.9592 0.0000
vt 0.9238 0.9592 0.0000
vt 0.9238 0.0000 0.0000
vt 0.9238 0.0408 0.0000
vt 0.0762 0.0408 0.0000
vt 0.0762 0.0000 0.0000
vt 1.0000 1.0000 1.0000
vt 0.2519 1.0000 1.0000
vt 0.2519 0.9592 1.0000
vt 1.0000 0.9592 1.0000
vt 0.2519 0.0000 1.0000
vt 1.0000 0.0000 1.0000
vt 1.0000 0.0408 1.0000
vt 0.2519 0.0408 1.0000
vt 0.0762 0.9592 1.0000
vt 0.9238 0.9592 1.0000
vt 0.9238 0.0000 1.0000
vt 0.9238 0.0408 1.0000
vt 0.0762 0.0408 1.0000
vt 0.0762 0.0000 1.0000
vt 0.7481 1.0000 0.0000
vt 0.0000 1.0000 0.0000
vt 0.0000 0.9592 0.0000
vt 0.7481 0.9592 0.0000
vt 0.0000 0.0000 0.0000
vt 0.7481 0.0000 0.0000
vt 0.7481 0.0408 0.0000
vt 0.0000 0.0408 0.0000
vt 0.0762 0.9592 0.2519
vt 0.0762 0.7187 0.2519
vt 0.9238 0.7187 0.2519
vt 0.9238 0.9592 0.2519
vt 0.9238 0.3335 0.0000
vt 0.9238 0.3817 0.0000
vt 0.0762 0.3817 0.0000
vt 0.0762 0.3335 0.0000
vt 0.2519 0.3335 1.0000
vt 1.0000 0.3335 1.0000
vt 1.0000 0.3817 1.0000
vt 0.2519 0.3817 1.0000
vt 0.9238 0.3335 1.0000
vt 0.9238 0.3817 1.0000
vt 0.0762 0.3817 1.0000
vt 0.0762 0.3335 1.0000
vt 0.0000 0.3335 0.0000
vt 0.7481 0.3335 0.0000
vt 0.7481 0.3817 0.0000
vt 0.0000 0.3817 0.0000
vt 0.9238 0.0408 0.2519
vt 0.9238 0.3335 0.2519
vt 0.0762 0.3335 0.2519
vt 0.0762 0.0408 0.2519
vt 0.0762 0.6754 0.2519
vt 0.0762 0.3817 0.2519
vt 0.9238 0.3817 0.2519
vt 0.9238 0.6754 0.2519
vt 0.0000 0.2519 0.0000
vt 1.0000 0.2519 0.0000
vt 1.0000 1.0000 0.0000
vt 1.0000 0.2519 1.0000
vt 0.0000 1.0000 1.0000
vt 0.0000 0.2519 1.0000
vt 1.0000 0.6754 0.0000
vt 1.0000 0.7187 0.0000
vt 0.0000 0.7187 1.0000
vt 0.0000 0.6754 1.0000
vt 1.0000 0.9592 0.0000
vt 1.0000 0.0000 0.0000
vt 1.0000 0.0408 0.0000
vt 0.0000 0.9592 1.0000
vt 0.0000 0.0408 1.0000
vt 0.0000 0.0000 1.0000
vt 1.0000 0.3335 0.0000
vt 1.0000 0.3817 0.0000
vt 0.0000 0.3817 1.0000
vt 0.0000 0.3335 1.0000
vt 0.9238 0.2519 0.9592
vt 0.0762 0.2519 0.9592
vt 0.0762 0.0000 0.9592
vt 0.9238 0.0000 0.9592
vt 0.7481 0.9592 0.9238
vt 0.7481 0.7187 0.9238
vt 1.0000 0.7187 0.9238
vt 1.0000 0.9592 0.9238
vt 0.9238 0.2519 0.7187
vt 0.0762 0.2519 0.7187
vt 0.0762 0.0000 0.7187
vt 0.9238 0.0000 0.7187
vt 0.2519 0.7187 0.0762
vt 0.2519 0.9592 0.0762
vt 0.0000 0.9592 0.0762
vt 0.0000 0.7187 0.0762
vt 0.9238 0.2519 0.0408
vt 0.0762 0.2519 0.0408
vt 0.0762 0.0000 0.0408
vt 0.9238 0.0000 0.0408
vt 0.2519 0.0408 0.0762
vt 0.2519 0.3335 0.0762
vt 0.0000 0.3335 0.0762
vt 0.0000 0.0408 0.0762
vt 0.9238 0.2519 0.3335
vt 0.0762 0.2519 0.3335
vt 0.0762 0.0000 0.3335
vt 0.9238 0.0000 0.3335
vt 0.7481 0.3335 0.9238
vt 0.7481 0.0408 0.9238
vt 1.0000 0.0408 0.9238
vt 1.0000 0.3335 0.9238
vt 0.9238 0.2519 0.6754
vt 0.0762 0.2519 0.6754
vt 0.0762 0.0000 0.6754
vt 0.9238 0.0000 0.6754
vt 0.7481 0.6754 0.9238
vt 0.7481 0.3817 0.9238
vt 1.0000 0.3817 0.9238
vt 1.0000 0.6754 0.9238
vt 0.9238 0.2519 0.3817
vt 0.0762 0.2519 0.3817
vt 0.0762 0.0000 0.3817
vt 0.9238 0.0000 0.3817
vt 0.2519 0.3817 0.0762
vt 0.2519 0.6754 0.0762
vt 0.0000 0.6754 0.0762
vt 0.0000 0.3817 0.0762
# 148 texture coords

g Box001
usemtl 02___Default
s 2
f 1/1/1 2/2/1 3/3/1 4/4/1 
s 4
f 5/5/2 6/6/2 7/7/2 8/8/2 
s 8
f 9/9/3 10/10/3 11/11/3 12/12/3 
s 16
f 13/13/4 14/14/4 15/15/4 16/16/4 
s 32
f 17/17/5 18/18/5 19/19/5 20/20/5 
s 64
f 21/21/6 22/22/6 23/23/6 24/24/6 
s 8
f 25/1/3 26/25/3 27/26/3 28/4/3 
f 29/27/3 30/28/3 31/29/3 32/30/3 
s 16
f 33/31/4 34/32/4 35/33/4 36/34/4 
f 37/35/4 38/36/4 39/37/4 40/38/4 
s 32
f 6/7/5 41/39/5 42/40/5 7/6/5 
f 4/41/5 43/42/5 44/43/5 1/44/5 
s 64
f 45/45/6 46/46/6 47/47/6 48/48/6 
f 49/49/6 50/50/6 51/51/6 52/52/6 
s 8
f 53/53/3 54/54/3 55/55/3 56/56/3 
f 57/57/3 58/58/3 59/59/3 60/60/3 
s 16
f 36/34/4 35/33/4 14/14/4 13/13/4 
f 61/61/4 62/62/4 63/63/4 64/64/4 
s 32
f 41/39/5 17/17/5 20/20/5 42/40/5 
f 65/65/5 66/66/5 67/67/5 68/68/5 
s 64
f 48/48/6 47/47/6 22/22/6 21/21/6 
f 69/69/6 70/70/6 71/71/6 72/72/6 
s 8
f 73/73/3 74/74/3 75/75/3 76/76/3 
f 77/77/3 78/78/3 79/79/3 80/80/3 
s 16
f 40/38/4 39/37/4 62/62/4 61/61/4 
f 16/16/4 15/15/4 64/64/4 63/63/4 
s 32
f 43/42/5 65/65/5 68/68/5 44/43/5 
f 18/18/5 67/67/5 66/66/5 19/19/5 
s 64
f 52/52/6 51/51/6 70/70/6 69/69/6 
f 24/24/6 23/23/6 72/72/6 71/71/6 
s 2
f 38/46/1 37/81/1 2/2/1 1/1/1 
f 50/82/1 49/83/1 4/4/1 3/3/1 
s 4
f 34/84/2 33/31/2 6/6/2 5/5/2 
f 46/85/2 45/86/2 8/8/2 7/7/2 
s 8
f 81/22/3 82/23/3 10/10/3 9/9/3 
f 83/87/3 84/88/3 12/12/3 11/11/3 
s 32
f 13/89/5 16/90/5 18/18/5 17/17/5 
f 23/16/5 22/13/5 20/20/5 19/19/5 
s 8
f 85/46/3 86/47/3 26/25/3 25/1/3 
f 87/91/3 88/83/3 28/4/3 27/26/3 
f 89/92/3 90/93/3 30/28/3 29/27/3 
f 91/52/3 92/49/3 32/30/3 31/29/3 
s 32
f 33/85/5 36/94/5 41/39/5 6/7/5 
f 47/34/5 46/31/5 7/6/5 42/40/5 
f 49/36/5 52/37/5 43/42/5 4/41/5 
f 39/95/5 38/96/5 1/44/5 44/43/5 
s 8
f 86/47/3 81/22/3 9/9/3 26/25/3 
f 84/88/3 87/91/3 27/26/3 12/12/3 
f 93/97/3 94/98/3 58/58/3 57/57/3 
f 95/72/3 96/69/3 60/60/3 59/59/3 
s 32
f 36/94/5 13/89/5 17/17/5 41/39/5 
f 22/13/5 47/34/5 42/40/5 20/20/5 
f 69/62/5 72/63/5 66/66/5 65/65/5 
f 63/99/5 62/100/5 68/68/5 67/67/5 
s 8
f 90/93/3 93/97/3 57/57/3 30/28/3 
f 96/69/3 91/52/3 31/29/3 60/60/3 
f 82/23/3 95/72/3 59/59/3 10/10/3 
f 94/98/3 83/87/3 11/11/3 58/58/3 
s 32
f 52/37/5 69/62/5 65/65/5 43/42/5 
f 62/100/5 39/95/5 44/43/5 68/68/5 
f 16/90/5 63/99/5 67/67/5 18/18/5 
f 72/63/5 23/16/5 19/19/5 66/66/5 
s off
f 2/2/1 37/81/1 89/49/1 29/30/1 
f 37/35/4 40/38/4 90/95/4 89/96/4 
f 40/38/4 61/61/4 93/100/4 90/95/4 
f 61/61/4 64/64/4 94/99/4 93/100/4 
f 64/64/4 15/15/4 83/90/4 94/99/4 
f 15/15/4 14/14/4 84/89/4 83/90/4 
f 14/14/4 35/33/4 87/94/4 84/89/4 
f 35/33/4 34/32/4 88/85/4 87/94/4 
f 34/84/2 5/5/2 28/41/2 88/36/2 
f 5/5/2 8/8/2 25/44/2 28/41/2 
f 8/8/2 45/86/2 85/96/2 25/44/2 
f 45/45/6 48/48/6 86/91/6 85/83/6 
f 48/48/6 21/21/6 81/88/6 86/91/6 
f 21/21/6 24/24/6 82/87/6 81/88/6 
f 24/24/6 71/71/6 95/98/6 82/87/6 
f 71/71/6 70/70/6 96/97/6 95/98/6 
f 70/70/6 51/51/6 91/93/6 96/97/6 
f 51/51/6 50/50/6 92/92/6 91/93/6 
f 50/82/1 3/3/1 32/27/1 92/92/1 
f 3/3/1 2/2/1 29/30/1 32/27/1 
f 53/101/1 56/102/1 27/103/1 26/104/1 
f 56/105/6 55/106/6 12/107/6 27/108/6 
f 55/109/2 54/110/2 9/111/2 12/112/2 
f 54/113/4 53/114/4 26/115/4 9/116/4 
f 73/117/7 76/118/7 31/119/7 30/120/7 
f 76/121/4 75/122/4 60/123/4 31/124/4 
f 75/125/1 74/126/1 57/127/1 60/128/1 
f 74/129/6 73/130/6 30/131/6 57/132/6 
f 77/133/1 80/134/1 11/135/1 10/136/1 
f 80/137/6 79/138/6 58/139/6 11/140/6 
f 79/141/7 78/142/7 59/143/7 58/144/7 
f 78/145/4 77/146/4 10/147/4 59/148/4 
# 94 polygons

