P3
50 40
255
255
106
0
255
106
0
255
106
0
255
106
0
255
106
0
255
106
0
255
106
0
255
106
0
255
106
0
255
106
0
255
106
0
255
106
0
255
106
0
255
106
0
255
106
0
255
106
0
255
106
0
255
106
0
255
106
0
255
106
0
255
106
0
255
106
0
255
106
0
255
106
0
255
106
0
255
106
0
255
106
0
255
106
0
255
106
0
255
106
0
255
106
0
255
106
0
255
106
0
255
106
0
255
106
0
255
106
0
255
106
0
255
106
0
255
106
0
255
106
0
255
106
0
255
106
0
255
106
0
255
106
0
255
106
0
255
106
0
255
106
0
255
106
0
255
106
0
255
106
0
255
106
0
255
106
0
255
106
0
255
106
0
255
106
0
255
106
0
255
106
0
255
106
0
255
106
0
255
106
0
255
106
0
255
106
0
255
106
0
255
106
0
255
106
0
255
106
0
255
106
0
255
106
0
255
106
0
255
106
0
255
106
0
255
106
0
255
106
0
255
106
0
255
106
0
255
106
0
255
106
0
255
106
0
255
106
0
255
106
0
255
106
0
255
106
0
255
106
0
255
106
0
255
106
0
255
106
0
255
106
0
255
106
0
255
106
0
255
106
0
255
106
0
255
106
0
255
106
0
255
106
0
255
106
0
255
106
0
255
106
0
255
106
0
255
106
0
255
106
0
255
106
0
255
106
0
255
106
0
255
106
0
255
106
0
255
106
0
255
106
0
255
106
0
255
106
0
255
106
0
255
106
0
255
106
0
255
106
0
255
106
0
255
106
0
255
106
0
255
106
0
255
106
0
255
106
0
255
106
0
255
106
0
255
106
0
255
106
0
255
106
0
255
106
0
255
106
0
255
106
0
255
106
0
255
106
0
255
106
0
255
106
0
255
106
0
255
106
0
255
106
0
255
106
0
255
106
0
255
106
0
255
106
0
255
106
0
255
106
0
255
106
0
255
106
0
255
106
0
255
106
0
255
106
0
255
106
0
255
106
0
255
106
0
255
106
0
255
106
0
255
106
0
255
106
0
255
106
0
255
106
0
255
106
0
255
106
0
255
106
0
255
106
0
255
106
0
255
106
0
255
106
0
255
106
0
255
106
0
255
106
0
255
106
0
255
106
0
255
106
0
255
106
0
255
106
0
255
106
0
255
106
0
255
106
0
255
106
0
255
106
0
255
106
0
255
106
0
255
106
0
255
106
0
255
106
0
255
106
0
255
106
0
255
106
0
255
106
0
255
106
0
255
106
0
255
106
0
255
106
0
255
106
0
255
106
0
255
106
0
255
106
0
255
106
0
255
106
0
255
106
0
255
106
0
255
106
0
255
106
0
255
106
0
255
106
0
255
106
0
255
106
0
255
106
0
255
106
0
255
106
0
255
106
0
255
106
0
255
106
0
255
106
0
255
106
0
255
106
0
255
106
0
255
106
0
255
106
0
255
106
0
255
106
0
255
106
0
255
106
0
255
106
0
255
106
0
255
106
0
255
106
0
255
106
0
255
106
0
255
106
0
0
0
0
0
0
0
0
0
0
0
0
0
0
0
0
0
0
0
0
0
0
0
0
0
0
0
0
0
0
0
0
0
0
0
0
0
0
0
0
0
0
0
0
0
0
0
0
0
0
0
0
0
0
0
0
0
0
0
0
0
0
0
0
0
0
0
0
0
0
0
0
0
0
0
0
0
0
0
255
106
0
255
106
0
255
106
0
255
106
0
255
106
0
255
106
0
255
106
0
255
106
0
255
106
0
255
106
0
255
106
0
255
106
0
255
106
0
255
106
0
255
106
0
255
106
0
255
106
0
255
106
0
255
106
0
255
106
0
255
106
0
255
106
0
255
106
0
255
106
0
0
0
0
255
255
255
255
255
255
255
255
255
255
255
255
255
255
255
255
255
255
255
255
255
255
255
255
255
255
255
255
255
255
255
255
255
255
255
255
255
255
255
255
255
255
255
255
255
255
255
255
255
255
255
255
255
255
255
255
255
255
255
255
255
255
255
255
255
255
255
255
255
255
255
255
0
255
0
255
106
0
255
106
0
255
106
0
255
106
0
255
106
0
255
106
0
255
106
0
255
106
0
255
106
0
255
106
0
255
106
0
255
106
0
255
106
0
255
106
0
255
106
0
255
106
0
255
106
0
255
106
0
255
106
0
255
106
0
255
106
0
255
106
0
255
106
0
255
106
0
0
0
0
255
255
255
0
0
0
0
0
0
0
0
0
0
0
0
0
0
0
0
0
0
0
0
0
0
0
0
0
0
0
0
0
0
0
0
0
0
0
0
0
0
0
0
0
0
0
0
0
0
0
0
0
0
0
0
0
0
0
0
0
0
0
0
0
0
0
0
0
0
0
0
0
0
0
0
255
106
0
255
106
0
255
106
0
255
106
0
255
106
0
255
106
0
255
106
0
255
106
0
255
106
0
255
106
0
255
106
0
255
106
0
255
106
0
255
106
0
255
106
0
255
106
0
255
106
0
255
106
0
255
106
0
255
106
0
255
106
0
255
106
0
255
106
0
255
106
0
0
0
0
255
255
255
0
0
0
255
106
0
255
106
0
255
106
0
255
106
0
255
106
0
255
106
0
255
106
0
255
106
0
255
106
0
255
106
0
255
106
0
255
106
0
255
106
0
255
106
0
255
106
0
255
106
0
255
106
0
255
106
0
255
106
0
255
106
0
255
106
0
255
106
0
255
106
0
255
106
0
255
106
0
255
106
0
255
106
0
255
106
0
255
106
0
255
106
0
255
106
0
255
106
0
255
106
0
255
106
0
255
106
0
255
106
0
255
106
0
255
106
0
255
106
0
255
106
0
255
106
0
255
106
0
255
106
0
255
106
0
255
106
0
255
106
0
255
106
0
0
0
0
255
255
255
0
0
0
255
106
0
255
106
0
255
106
0
255
106
0
255
106
0
255
106
0
255
106
0
255
106
0
255
106
0
255
106
0
255
106
0
255
106
0
255
106
0
255
106
0
255
106
0
255
106
0
255
106
0
255
106
0
255
106
0
255
106
0
255
106
0
255
106
0
255
106
0
255
106
0
255
106
0
255
106
0
255
106
0
255
106
0
255
106
0
255
106
0
255
106
0
255
106
0
255
106
0
255
106
0
255
106
0
255
106
0
255
106
0
255
106
0
255
106
0
255
106
0
255
106
0
255
106
0
255
106
0
255
106
0
255
106
0
255
106
0
255
106
0
0
0
0
255
255
255
0
0
0
255
106
0
255
106
0
255
106
0
255
106
0
255
106
0
255
106
0
255
106
0
255
106
0
255
106
0
255
106
0
255
106
0
255
106
0
255
106
0
255
106
0
255
106
0
255
106
0
255
106
0
255
106
0
255
106
0
255
106
0
255
106
0
255
106
0
255
106
0
255
106
0
255
106
0
255
106
0
255
106
0
255
106
0
255
106
0
255
106
0
255
106
0
255
106
0
255
106
0
255
106
0
255
106
0
255
106
0
255
106
0
255
106
0
255
106
0
255
106
0
255
106
0
255
106
0
255
106
0
255
106
0
255
106
0
255
106
0
255
106
0
0
0
0
255
255
255
0
0
0
255
106
0
255
106
0
255
106
0
255
106
0
255
106
0
255
106
0
255
106
0
255
106
0
255
106
0
255
106
0
255
106
0
255
106
0
255
106
0
255
106
0
255
106
0
255
106
0
255
106
0
255
106
0
255
106
0
255
106
0
255
106
0
255
106
0
255
106
0
255
106
0
255
106
0
255
106
0
255
106
0
255
106
0
255
106
0
255
106
0
255
106
0
255
106
0
255
106
0
255
106
0
255
106
0
255
106
0
255
106
0
255
106
0
255
106
0
255
106
0
255
106
0
255
106
0
255
106
0
255
106
0
255
106
0
255
106
0
255
106
0
0
0
0
255
255
255
0
0
0
255
106
0
255
106
0
255
106
0
255
106
0
255
106
0
255
106
0
255
106
0
255
106
0
255
106
0
255
106
0
255
106
0
255
106
0
255
106
0
255
106
0
255
106
0
255
106
0
255
106
0
255
106
0
255
106
0
255
106
0
255
106
0
255
106
0
255
106
0
255
106
0
255
106
0
255
106
0
255
106
0
255
106
0
255
106
0
255
106
0
255
106
0
255
106
0
255
106
0
255
106
0
255
106
0
255
106
0
255
106
0
255
106
0
255
106
0
255
106
0
255
106
0
255
106
0
255
106
0
255
106
0
255
106
0
255
106
0
255
106
0
0
0
0
255
255
255
0
0
0
255
106
0
255
106
0
255
106
0
255
106
0
255
106
0
255
106
0
255
106
0
255
106
0
255
106
0
255
106
0
255
106
0
255
106
0
255
106
0
255
106
0
255
106
0
255
106
0
255
106
0
255
106
0
255
106
0
255
106
0
255
106
0
255
106
0
255
106
0
255
106
0
255
106
0
255
106
0
255
106
0
255
106
0
255
106
0
255
106
0
255
106
0
255
106
0
255
106
0
255
106
0
255
106
0
255
106
0
255
106
0
255
106
0
255
106
0
255
106
0
255
106
0
255
106
0
255
106
0
255
106
0
255
106
0
255
106
0
255
106
0
0
0
0
255
255
255
0
0
0
255
106
0
255
106
0
255
106
0
255
106
0
255
106
0
255
106
0
255
106
0
255
106
0
255
106
0
255
106
0
255
106
0
255
106
0
255
106
0
255
106
0
255
106
0
255
106
0
255
106
0
255
106
0
255
106
0
255
106
0
255
106
0
255
106
0
255
106
0
255
106
0
255
106
0
255
106
0
255
106
0
255
106
0
255
106
0
255
106
0
255
106
0
255
106
0
255
106
0
255
106
0
255
106
0
255
106
0
255
106
0
255
106
0
255
106
0
255
106
0
255
106
0
255
106
0
255
106
0
255
106
0
255
106
0
255
106
0
255
106
0
0
0
0
255
255
255
0
0
0
255
106
0
255
106
0
255
106
0
255
106
0
255
106
0
255
106
0
255
106
0
255
106
0
255
106
0
255
106
0
255
106
0
255
106
0
255
106
0
255
106
0
255
106
0
255
106
0
255
106
0
255
106
0
255
106
0
255
106
0
255
106
0
255
106
0
255
106
0
255
106
0
255
106
0
255
106
0
255
106
0
255
106
0
255
106
0
255
106
0
255
106
0
255
106
0
255
106
0
255
106
0
255
106
0
0
0
0
0
0
0
0
0
0
0
0
0
0
0
0
0
0
0
0
0
0
0
0
0
0
0
0
0
0
0
0
0
0
0
0
0
0
0
0
255
255
255
0
0
0
255
106
0
255
106
0
255
106
0
255
106
0
255
106
0
255
106
0
255
106
0
255
106
0
255
106
0
255
106
0
255
106
0
255
106
0
255
106
0
255
106
0
255
106
0
255
106
0
255
106
0
255
106
0
255
106
0
255
106
0
255
106
0
255
106
0
255
106
0
255
106
0
255
106
0
255
106
0
255
106
0
255
106
0
255
106
0
255
106
0
255
106
0
255
106
0
255
106
0
255
106
0
255
106
0
0
0
0
255
255
255
255
255
255
255
255
255
255
255
255
255
255
255
255
255
255
255
255
255
255
255
255
255
255
255
255
255
255
255
255
255
255
255
255
255
255
255
0
0
0
255
106
0
255
106
0
255
106
0
255
106
0
255
106
0
255
106
0
255
106
0
255
106
0
255
106
0
255
106
0
255
106
0
255
106
0
255
106
0
255
106
0
255
106
0
255
106
0
255
106
0
255
106
0
255
106
0
255
106
0
255
106
0
255
106
0
255
106
0
255
106
0
255
106
0
255
106
0
255
106
0
255
106
0
255
106
0
255
106
0
255
106
0
255
106
0
255
106
0
255
106
0
255
106
0
0
0
0
255
255
255
0
0
0
0
0
0
0
0
0
0
0
0
0
0
0
0
0
0
0
0
0
0
0
0
0
0
0
0
0
0
0
0
0
0
0
0
0
0
0
255
106
0
255
106
0
255
106
0
255
106
0
255
106
0
255
106
0
255
106
0
255
106
0
255
106
0
255
106
0
255
106
0
255
106
0
255
106
0
255
106
0
255
106
0
255
106
0
255
106
0
255
106
0
255
106
0
255
106
0
255
106
0
255
106
0
255
106
0
255
106
0
255
106
0
255
106
0
255
106
0
255
106
0
255
106
0
255
106
0
255
106
0
255
106
0
255
106
0
255
106
0
255
106
0
0
0
0
255
255
255
0
0
0
255
106
0
255
106
0
255
106
0
255
106
0
255
106
0
255
106
0
255
106
0
255
106
0
255
106
0
255
106
0
255
106
0
255
106
0
255
106
0
255
106
0
255
106
0
255
106
0
255
106
0
255
106
0
255
106
0
255
106
0
255
106
0
255
106
0
255
106
0
255
106
0
255
106
0
255
106
0
255
106
0
255
106
0
255
106
0
255
106
0
255
106
0
255
106
0
255
106
0
255
106
0
255
106
0
255
106
0
255
106
0
255
106
0
255
106
0
255
106
0
255
106
0
255
106
0
255
106
0
255
106
0
255
106
0
255
106
0
255
106
0
0
0
0
255
255
255
0
0
0
255
106
0
255
106
0
255
106
0
255
106
0
255
106
0
255
106
0
255
106
0
255
106
0
255
106
0
255
106
0
255
106
0
255
106
0
255
106
0
255
106
0
255
106
0
255
106
0
255
106
0
255
106
0
255
106
0
255
106
0
255
106
0
255
106
0
255
106
0
255
106
0
255
106
0
255
106
0
255
106
0
255
106
0
255
106
0
255
106
0
255
106
0
255
106
0
255
106
0
255
106
0
255
106
0
255
106
0
255
106
0
255
106
0
255
106
0
255
106
0
255
106
0
255
106
0
255
106
0
255
106
0
255
106
0
255
106
0
255
106
0
0
0
0
255
255
255
0
0
0
255
106
0
255
106
0
255
106
0
255
106
0
255
106
0
255
106
0
255
106
0
255
106
0
255
106
0
255
106
0
255
106
0
255
106
0
255
106
0
255
106
0
255
106
0
255
106
0
255
106
0
255
106
0
255
106
0
255
106
0
255
106
0
255
106
0
255
106
0
255
106
0
255
106
0
255
106
0
255
106
0
255
106
0
255
106
0
255
106
0
255
106
0
255
106
0
255
106
0
255
106
0
255
106
0
255
106
0
255
106
0
255
106
0
255
106
0
255
106
0
255
106
0
255
106
0
255
106
0
255
106
0
255
106
0
255
106
0
255
106
0
0
0
0
255
255
255
0
0
0
255
106
0
255
106
0
255
106
0
255
106
0
255
106
0
255
106
0
255
106
0
255
106
0
255
106
0
255
106
0
255
106
0
255
106
0
255
106
0
255
106
0
255
106
0
255
106
0
255
106
0
255
106
0
255
106
0
255
106
0
255
106
0
255
106
0
255
106
0
255
106
0
255
106
0
255
106
0
255
106
0
255
106
0
255
106
0
255
106
0
255
106
0
255
106
0
255
106
0
255
106
0
255
106
0
255
106
0
255
106
0
255
106
0
255
106
0
255
106
0
255
106
0
255
106
0
255
106
0
255
106
0
255
106
0
255
106
0
255
106
0
0
0
0
255
255
255
0
0
0
255
106
0
255
106
0
255
106
0
255
106
0
255
106
0
255
106
0
255
106
0
255
106
0
255
106
0
255
106
0
255
106
0
255
106
0
255
106
0
255
106
0
255
106
0
255
106
0
255
106
0
255
106
0
255
106
0
255
106
0
255
106
0
255
106
0
255
106
0
255
106
0
255
106
0
255
106
0
255
106
0
255
106
0
255
106
0
255
106
0
255
106
0
255
106
0
255
106
0
255
106
0
255
106
0
255
106
0
255
106
0
255
106
0
255
106
0
255
106
0
255
106
0
255
106
0
255
106
0
255
106
0
255
106
0
255
106
0
255
106
0
0
0
0
255
255
255
0
0
0
255
106
0
255
106
0
255
106
0
255
106
0
255
106
0
255
106
0
255
106
0
255
106
0
255
106
0
255
106
0
255
106
0
255
106
0
255
106
0
255
106
0
255
106
0
255
106
0
255
106
0
255
106
0
255
106
0
255
106
0
255
106
0
255
106
0
255
106
0
255
106
0
255
106
0
255
106
0
255
106
0
255
106
0
255
106
0
255
106
0
255
106
0
255
106
0
255
106
0
255
106
0
255
106
0
255
106
0
255
106
0
255
106
0
255
106
0
255
106
0
255
106
0
255
106
0
255
106
0
255
106
0
255
106
0
255
106
0
255
106
0
0
0
0
255
255
255
0
0
0
255
106
0
255
106
0
255
106
0
255
106
0
255
106
0
255
106
0
255
106
0
255
106
0
255
106
0
255
106
0
255
106
0
255
106
0
255
106
0
255
106
0
255
106
0
255
106
0
255
106
0
255
106
0
255
106
0
255
106
0
255
106
0
255
106
0
255
106
0
255
106
0
255
106
0
255
106
0
255
106
0
255
106
0
255
106
0
255
106
0
255
106
0
255
106
0
255
106
0
255
106
0
255
106
0
255
106
0
255
106
0
255
106
0
255
106
0
255
106
0
255
106
0
255
106
0
255
106
0
255
106
0
255
106
0
255
106
0
255
106
0
0
0
0
255
255
255
0
0
0
255
106
0
255
106
0
255
106
0
255
106
0
255
106
0
255
106
0
255
106
0
255
106
0
255
106
0
255
106
0
255
106
0
255
106
0
255
106
0
255
106
0
255
106
0
255
106
0
255
106
0
255
106
0
255
106
0
255
106
0
255
106
0
255
106
0
255
106
0
255
106
0
255
106
0
255
106
0
255
106
0
255
106
0
255
106
0
255
106
0
255
106
0
255
106
0
255
106
0
255
106
0
255
106
0
255
106
0
255
106
0
255
106
0
255
106
0
255
106
0
255
106
0
255
106
0
255
106
0
255
106
0
255
106
0
255
106
0
255
106
0
0
0
0
255
255
255
0
0
0
255
106
0
255
106
0
255
106
0
255
106
0
255
106
0
255
106
0
255
106
0
255
106
0
255
106
0
255
106
0
255
106
0
255
106
0
255
106
0
255
106
0
255
106
0
255
106
0
255
106
0
255
106
0
255
106
0
255
106
0
255
106
0
255
106
0
255
106
0
255
106
0
255
106
0
255
106
0
255
106
0
255
106
0
255
106
0
255
106
0
255
106
0
255
106
0
255
106
0
255
106
0
255
106
0
255
106
0
255
106
0
255
106
0
255
106
0
255
106
0
255
106
0
255
106
0
255
106
0
255
106
0
255
106
0
255
106
0
255
106
0
0
0
0
255
255
255
0
0
0
255
106
0
255
106
0
255
106
0
255
106
0
255
106
0
255
106
0
255
106
0
255
106
0
255
106
0
255
106
0
255
106
0
255
106
0
255
106
0
255
106
0
255
106
0
255
106
0
255
106
0
255
106
0
255
106
0
255
106
0
255
106
0
255
106
0
255
106
0
255
106
0
255
106
0
255
106
0
255
106
0
255
106
0
255
106
0
255
106
0
255
106
0
255
106
0
255
106
0
255
106
0
255
106
0
255
106
0
255
106
0
255
106
0
255
106
0
255
106
0
255
106
0
255
106
0
255
106
0
255
106
0
255
106
0
255
106
0
255
106
0
0
0
0
255
255
255
0
0
0
255
106
0
255
106
0
255
106
0
255
106
0
255
106
0
255
106
0
255
106
0
255
106
0
255
106
0
255
106
0
255
106
0
255
106
0
255
106
0
255
106
0
255
106
0
255
106
0
255
106
0
255
106
0
255
106
0
255
106
0
255
106
0
255
106
0
255
106
0
255
106
0
255
106
0
255
106
0
255
106
0
255
106
0
255
106
0
255
106
0
255
106
0
255
106
0
255
106
0
255
106
0
255
106
0
255
106
0
255
106
0
255
106
0
255
106
0
255
106
0
255
106
0
255
106
0
255
106
0
255
106
0
255
106
0
255
106
0
255
106
0
0
0
0
255
255
255
0
0
0
255
106
0
255
106
0
255
106
0
255
106
0
255
106
0
255
106
0
255
106
0
255
106
0
255
106
0
255
106
0
255
106
0
255
106
0
255
106
0
255
106
0
255
106
0
255
106
0
255
106
0
255
106
0
255
106
0
255
106
0
255
106
0
255
106
0
255
106
0
255
106
0
255
106
0
255
106
0
255
106
0
255
106
0
255
106
0
255
106
0
255
106
0
255
106
0
255
106
0
255
106
0
255
106
0
255
106
0
255
106
0
255
106
0
255
106
0
255
106
0
255
106
0
255
106
0
255
106
0
255
106
0
255
106
0
255
106
0
255
106
0
0
0
0
255
255
255
0
0
0
255
106
0
255
106
0
255
106
0
255
106
0
255
106
0
255
106
0
255
106
0
255
106
0
255
106
0
255
106
0
255
106
0
255
106
0
255
106
0
255
106
0
255
106
0
255
106
0
255
106
0
255
106
0
255
106
0
255
106
0
255
106
0
255
106
0
255
106
0
255
106
0
255
106
0
255
106
0
255
106
0
255
106
0
255
106
0
255
106
0
255
106
0
255
106
0
255
106
0
255
106
0
255
106
0
255
106
0
255
106
0
255
106
0
255
106
0
255
106
0
255
106
0
255
106
0
255
106
0
255
106
0
255
106
0
255
106
0
255
106
0
0
0
0
255
255
255
0
0
0
255
106
0
255
106
0
255
106
0
255
106
0
255
106
0
255
106
0
255
106
0
255
106
0
255
106
0
255
106
0
255
106
0
255
106
0
255
106
0
255
106
0
255
106
0
255
106
0
255
106
0
255
106
0
255
106
0
255
106
0
255
106
0
255
106
0
255
106
0
255
106
0
255
106
0
255
106
0
255
106
0
255
106
0
255
106
0
255
106
0
255
106
0
255
106
0
255
106
0
255
106
0
255
106
0
255
106
0
255
106
0
255
106
0
255
106
0
255
106
0
255
106
0
255
106
0
255
106
0
255
106
0
255
106
0
255
106
0
255
106
0
0
0
0
255
255
255
0
0
0
255
106
0
255
106
0
255
106
0
255
106
0
255
106
0
255
106
0
255
106
0
255
106
0
255
106
0
255
106
0
255
106
0
255
106
0
255
106
0
255
106
0
255
106
0
255
106
0
255
106
0
255
106
0
255
106
0
255
106
0
255
106
0
255
106
0
255
106
0
255
106
0
255
106
0
255
106
0
255
106
0
255
106
0
255
106
0
255
106
0
255
106
0
255
106
0
255
106
0
255
106
0
255
106
0
255
106
0
255
106
0
255
106
0
255
106
0
255
106
0
255
106
0
255
106
0
255
106
0
255
106
0
255
106
0
255
106
0
255
106
0
0
0
0
255
255
255
0
0
0
255
106
0
255
106
0
255
106
0
255
106
0
255
106
0
255
106
0
255
106
0
255
106
0
255
106
0
255
106
0
255
106
0
255
106
0
255
106
0
255
106
0
255
106
0
255
106
0
255
106
0
255
106
0
255
106
0
255
106
0
255
106
0
255
106
0
255
106
0
255
106
0
255
106
0
255
106
0
255
106
0
255
106
0
255
106
0
255
106
0
255
106
0
255
106
0
255
106
0
255
106
0
255
106
0
255
106
0
255
106
0
255
106
0
255
106
0
255
106
0
255
106
0
255
106
0
255
106
0
255
106
0
255
106
0
255
106
0
255
106
0
0
0
0
255
255
255
0
0
0
255
106
0
255
106
0
255
106
0
255
106
0
255
106
0
255
106
0
255
106
0
255
106
0
255
106
0
255
106
0
255
106
0
255
106
0
255
106
0
255
106
0
255
106
0
255
106
0
255
106
0
255
106
0
255
106
0
255
106
0
255
106
0
255
106
0
255
106
0
255
106
0
255
106
0
255
106
0
255
106
0
255
106
0
255
106
0
255
106
0
255
106
0
255
106
0
255
106
0
255
106
0
255
106
0
255
106
0
255
106
0
255
106
0
255
106
0
255
106
0
255
106
0
255
106
0
255
106
0
255
106
0
255
106
0
255
106
0
255
106
0
0
0
0
255
255
255
0
0
0
255
106
0
255
106
0
255
106
0
255
106
0
255
106
0
255
106
0
255
106
0
255
106
0
255
106
0
255
106
0
255
106
0
255
106
0
255
106
0
255
106
0
255
106
0
255
106
0
255
106
0
255
106
0
255
106
0
255
106
0
255
106
0
255
106
0
255
106
0
255
106
0
255
106
0
255
106
0
255
106
0
255
106
0
255
106
0
255
106
0
255
106
0
255
106
0
255
106
0
255
106
0
255
106
0
255
106
0
255
106
0
255
106
0
255
106
0
255
106
0
255
106
0
255
106
0
255
106
0
255
106
0
255
106
0
255
106
0
255
106
0
0
0
0
255
255
255
0
0
0
255
106
0
255
106
0
255
106
0
255
106
0
255
106
0
255
106
0
255
106
0
255
106
0
255
106
0
255
106
0
255
106
0
255
106
0
255
106
0
255
106
0
255
106
0
255
106
0
255
106
0
255
106
0
255
106
0
255
106
0
255
106
0
255
106
0
255
106
0
255
106
0
255
106
0
255
106
0
255
106
0
255
106
0
255
106
0
255
106
0
255
106
0
255
106
0
255
106
0
255
106
0
255
106
0
255
106
0
255
106
0
255
106
0
255
106
0
255
106
0
255
106
0
255
106
0
255
106
0
255
106
0
255
106
0
255
106
0
255
106
0
0
0
0
255
255
255
0
0
0
255
106
0
255
106
0
255
106
0
255
106
0
255
106
0
255
106
0
255
106
0
255
106
0
255
106
0
255
106
0
255
106
0
255
106
0
255
106
0
255
106
0
255
106
0
255
106
0
255
106
0
255
106
0
255
106
0
255
106
0
255
106
0
255
106
0
255
106
0
255
106
0
255
106
0
255
106
0
255
106
0
255
106
0
255
106
0
255
106
0
255
106
0
255
106
0
255
106
0
255
106
0
255
106
0
255
106
0
255
106
0
255
106
0
255
106
0
255
106
0
255
106
0
255
106
0
255
106
0
255
106
0
255
106
0
255
106
0
255
106
0
0
0
0
255
255
255
0
0
0
255
106
0
255
106
0
255
106
0
255
106
0
255
106
0
255
106
0
255
106
0
255
106
0
255
106
0
255
106
0
255
106
0
255
106
0
255
106
0
255
106
0
255
106
0
255
106
0
255
106
0
255
106
0
255
106
0
255
106
0
255
106
0
255
106
0
255
106
0
255
106
0
255
106
0
255
106
0
255
106
0
255
106
0
255
106
0
255
106
0
255
106
0
255
106
0
255
106
0
255
106
0
255
106
0
255
106
0
255
106
0
255
106
0
255
106
0
255
106
0
255
106
0
255
106
0
255
106
0
255
106
0
255
106
0
255
106
0
255
106
0
0
0
0
255
0
0
0
0
0
255
106
0
255
106
0
255
106
0
255
106
0
255
106
0
255
106
0
255
106
0
255
106
0
255
106
0
255
106
0
255
106
0
255
106
0
255
106
0
255
106
0
255
106
0
255
106
0
255
106
0
255
106
0
255
106
0
255
106
0
255
106
0
255
106
0
255
106
0
255
106
0
255
106
0
255
106
0
255
106
0
255
106
0
255
106
0
255
106
0
255
106
0
255
106
0
255
106
0
255
106
0
255
106
0
